<?xml version="1.0" encoding="UTF-8" standalone="no"?>
<!-- Generator: Adobe Illustrator 15.0.2, SVG Export Plug-In . SVG Version: 6.00 Build 0)  -->

<svg
   xmlns:dc="http://purl.org/dc/elements/1.1/"
   xmlns:cc="http://creativecommons.org/ns#"
   xmlns:rdf="http://www.w3.org/1999/02/22-rdf-syntax-ns#"
   xmlns:svg="http://www.w3.org/2000/svg"
   xmlns="http://www.w3.org/2000/svg"
   xmlns:xlink="http://www.w3.org/1999/xlink"
   xmlns:sodipodi="http://sodipodi.sourceforge.net/DTD/sodipodi-0.dtd"
   xmlns:inkscape="http://www.inkscape.org/namespaces/inkscape"
   version="1.1"
   id="Layer_1"
   x="0px"
   y="0px"
   width="394px"
   height="246px"
   viewBox="0 0 394 246"
   enable-background="new 0 0 394 246"
   xml:space="preserve"
   inkscape:version="0.48.4 r9939"
   sodipodi:docname="logo-pt.svg"
   inkscape:export-filename="/var/www/cc-pt/CodeClubPortugal.github.io/img/logo-pt.png"
   inkscape:export-xdpi="144.86624"
   inkscape:export-ydpi="144.86624"><metadata
     id="metadata13"><rdf:RDF><cc:Work
         rdf:about=""><dc:format>image/svg+xml</dc:format><dc:type
           rdf:resource="http://purl.org/dc/dcmitype/StillImage" /><dc:title></dc:title></cc:Work></rdf:RDF></metadata><defs
     id="defs11"><use
       transform="scale(10.5)"
       xlink:href="#star"
       id="star5" /><use
       transform="scale(15)"
       xlink:href="#star"
       id="star4" /><use
       transform="scale(21)"
       xlink:href="#star"
       id="star3" /><use
       transform="scale(26.25)"
       xlink:href="#star"
       id="star2" /><use
       transform="scale(31.5)"
       xlink:href="#star"
       id="star1" /><g
       id="star"><g
         id="c"><path
           transform="rotate(18 0,-1)"
           d="M 0,-1 v 1 h .5"
           id="t" /><use
           id="use3231"
           transform="scale(-1,1)"
           xlink:href="#t" /></g><use
         id="use3233"
         transform="rotate(72)"
         xlink:href="#c" /><use
         id="use3235"
         transform="rotate(-72)"
         xlink:href="#c" /><use
         id="use3237"
         transform="rotate(144)"
         xlink:href="#c" /><use
         id="use3239"
         transform="rotate(-144)"
         xlink:href="#c" /></g><path
       d="M -15.75,-22 C -15.75,-15 -9,-11.5 1,-11.5 C 11,-11.5 15.74,-14.75 15.75,-19.25 C 15.75,-33.5 -31,-24.5 -30.75,-49.5 C -30.5,-71 -6,-70 3,-70 C 12,-70 29,-66 28.75,-48.75 L 13.5,-48.75 C 13.5,-56.25 6.5,-59 -1.5,-59 C -9.25,-59 -14.75,-57.75 -14.75,-50.5 C -15,-38.75 31.5,-46.5 31.5,-21.75 C 31.5,-3.5 13.5,0 0,0 C -11.5,0 -31.55,-4.5 -31.5,-22 z"
       id="S" /><g
       id="R"><use
         id="use3223"
         xlink:href="#P" /><path
         id="path3225"
         d="M 28,0 c 0,-10 0,-32 -15,-32 h -19 c 22,0 22,22 22,32" /></g><path
       d="M -31.5,0 h 13 v -26 h 28 a 22 22 0 0 0 0,-44 h -40 z M -18.5,-39 h 27 a 9 9 0 0 0 0,-18 h -27 z"
       id="P" /><path
       d="M 0,0 a 31.5 35 0 0 0 0,-70 a 31.5 35 0 0 0 0,70 M 0,-13 a 18.5 22 0 0 0 0,-44 a 18.5 22 0 0 0 0,44"
       id="O" /><path
       d="M -31.5,0 h 12 v -48 l 14,48 h 11 l 14,-48 V 0 h 12 V -70 h -17.5 l -14,48 l -14,-48 H -31.5 z"
       id="M" /><g
       id="G"><clipPath
         id="gcut"><path
           id="path3211"
           d="M -31.5,0 v -70 h 63 v 70 z M 0,-47 v 12 h 31.5 v -12 z" /></clipPath><use
         id="use3213"
         clip-path="url(#gcut)"
         xlink:href="#O" /><rect
         id="rect3215"
         height="10"
         width="26.5"
         y="-35"
         x="5" /><rect
         id="rect3217"
         height="35"
         width="10"
         y="-35"
         x="21.5" /></g><path
       d="M -26.25,0 h 52.5 v -12 h -40.5 v -16 h 33 v -12 h -33 v -11 H 25 v -12 H -26.25 z"
       id="e" /><path
       transform="translate(-31.5)"
       d="M 0,0 h 63 v -13 H 12 v -18 h 40 v -12 h -40 v -14 H 60 v -13 H 0 z"
       id="E" /><path
       d="M -31.5,0 h 33 a 30 30 0 0 0 30,-30 v -10 a 30 30 0 0 0 -30,-30 H -31.5 z M -18.5,-13 h 19 a 19 19 0 0 0 19,-19 v -6 a 19 19 0 0 0 -19,-19 H -18.5 z"
       id="D" /><clipPath
       id="band"><circle
         sodipodi:ry="735"
         sodipodi:rx="735"
         sodipodi:cy="0"
         sodipodi:cx="0"
         cy="0"
         cx="0"
         r="735"
         id="circle4181" /></clipPath><clipPath
       id="gcut-2"><path
         inkscape:connector-curvature="0"
         d="m -31.5,0 v -70 h 63 V 0 z M 0,-47 v 12 h 31.5 v -12 z"
         id="path4139" /></clipPath><clipPath
       clipPathUnits="userSpaceOnUse"
       id="clipPath4926"><path
         d="m 343.73567,4.32572 c -27.896,0 -53.594,9.388 -74.125,25.164 -20.532,-15.776 -46.231,-25.164 -74.126,-25.164 -67.249,0 -121.767,54.519001 -121.767,121.769 0,67.248 54.518,121.766 121.767,121.766 27.895,0 53.594,-9.385 74.125,-25.162 20.532,15.777 46.229,25.162 74.125,25.162 67.25,0 121.768,-54.518 121.768,-121.766 0,-67.249999 -54.517,-121.769 -121.767,-121.769 z"
         id="path4928"
         inkscape:connector-curvature="0"
         style="fill:#007dc5;display:inline" /></clipPath></defs><sodipodi:namedview
     pagecolor="#ffffff"
     bordercolor="#666666"
     borderopacity="1"
     objecttolerance="10"
     gridtolerance="10"
     guidetolerance="10"
     inkscape:pageopacity="0"
     inkscape:pageshadow="2"
     inkscape:window-width="1366"
     inkscape:window-height="721"
     id="namedview9"
     showgrid="false"
     inkscape:zoom="1.9186992"
     inkscape:cx="208.1224"
     inkscape:cy="158.40781"
     inkscape:window-x="-3"
     inkscape:window-y="-3"
     inkscape:window-maximized="1"
     inkscape:current-layer="layer1"><inkscape:grid
       type="xygrid"
       id="grid3051" /></sodipodi:namedview><g
     inkscape:groupmode="layer"
     id="layer1"
     inkscape:label="portugal"
     style="display:inline"><g
       id="g4457"
       clip-path="url(#clipPath4926)"
       transform="translate(-72,-2)"><g
         id="g4478"
         transform="translate(-166,-78)"><path
           style="fill:#42b23c;fill-opacity:1;stroke:#d40000;stroke-width:0;stroke-miterlimit:4;stroke-opacity:1"
           d="m 0.33474731,2.1841125 673.37286269,0 0,253.9622775 -673.37286269,0 z"
           id="rect4416" /></g><g
         id="g3521"
         transform="matrix(0.59608051,0,0,0.59608051,4.6249994,-75.34322)"><path
           d="M 240,567.87631 H 792.35827 V 0 H 240 v 418.2551 149.62121 z"
           id="path1339"
           inkscape:connector-curvature="0"
           style="fill:#ff0000" /><path
           d="M 0,546.89177 H 240 V 0 H 0 v 546.89177 z"
           id="path1341"
           inkscape:connector-curvature="0"
           style="fill:#006600" /><path
           d="M 318.24,262.04 C 288.03,261.13 149.5,174.66 148.55,160.89 l 7.6496,-12.757 c 13.741,19.966 155.36,104.06 169.27,101.08 l -7.2299,12.823"
           id="path1343"
           inkscape:connector-curvature="0"
           style="fill:#ffff00;fill-rule:evenodd" /><path
           d="m 154.59,146.4 c -2.7092,7.2937 36.15,31.318 82.903,59.754 46.753,28.436 87.065,46.006 90.053,43.486 0.18168,-0.32544 1.4701,-2.5409 1.352,-2.5224 -0.5609,0.8449 -1.9243,1.1095 -4.0515,0.49653 -12.63,-3.6433 -45.575,-18.763 -86.374,-43.506 -40.798,-24.743 -76.294,-47.542 -81.812,-57.232 -0.38274,-0.67116 -0.65702,-1.8944 -0.60057,-2.8469 h -0.13494 l -1.1756,2.0514 -0.1605,0.32191 8.8e-4,-0.002 z m 164.36,116.03 c -0.51327,0.92957 -1.4675,0.9622 -3.2825,0.76112 -11.3,-1.2506 -45.589,-17.925 -86.161,-42.213 -47.212,-28.262 -86.204,-54.011 -81.968,-60.744 l 1.1509,-2.0346 0.22665,0.0706 c -3.8037,11.405 76.948,57.576 81.702,60.522 46.724,28.947 86.114,45.851 89.601,41.457 l -1.2682,2.181"
           id="path1345"
           inkscape:connector-curvature="0"
           style="fill:#ffff00;fill-rule:evenodd" /><path
           d="m 154.59,146.4 c -2.7101,7.2937 36.149,31.318 82.903,59.754 46.752,28.434 87.065,46.006 90.053,43.486 0.18256,-0.32544 1.4701,-2.5409 1.352,-2.5232 -0.56001,0.84402 -1.9234,1.1104 -4.0506,0.49741 -12.631,-3.6433 -45.575,-18.765 -86.374,-43.506 -40.798,-24.743 -76.294,-47.544 -81.811,-57.232 -0.38363,-0.67116 -0.65702,-1.8962 -0.60146,-2.8487 l -0.13405,-0.002 -1.1747,2.0532 -0.16139,0.32191 h -8.8e-4 z m 164.36,116.04 c -0.51238,0.92957 -1.4675,0.96044 -3.2816,0.76112 -11.3,-1.2506 -45.589,-17.925 -86.162,-42.213 -47.21,-28.26 -86.2,-54.01 -81.97,-60.74 l 1.1509,-2.0346 0.22665,0.0706 c -3.8037,11.405 76.948,57.578 81.702,60.522 46.724,28.947 86.115,45.851 89.601,41.458 l -1.2682,2.181 v -0.002 z"
           id="path1347"
           inkscape:connector-curvature="0"
           style="fill:none;stroke:#000000;stroke-width:0.57292998;stroke-linecap:round;stroke-linejoin:round" /><path
           d="m 240.17,169.23 c 30.237,-0.23901 67.55,-4.1319 89.023,-12.69 l -4.6265,-7.5168 c -12.692,7.0247 -50.21,11.644 -84.652,12.335 -40.736,-0.37483 -69.49,-4.1681 -83.897,-13.835 l -4.3672,8.0045 c 26.484,11.207 53.623,13.587 88.52,13.703"
           id="path1349"
           inkscape:connector-curvature="0"
           style="fill:#ffff00;fill-rule:evenodd" /><path
           d="m 330.44,156.71 c -0.73904,1.1818 -14.744,6.0096 -35.374,9.5735 -13.987,2.1325 -32.234,3.9555 -55.004,3.9776 -21.633,0.0203 -39.305,-1.5196 -52.685,-3.3329 -21.656,-3.3955 -32.833,-8.1201 -36.966,-9.7878 0.3951,-0.78582 0.64909,-1.3388 1.0301,-2.0726 11.895,4.7378 23.124,7.5936 36.279,9.6176 13.291,1.8 30.75,3.362 52.277,3.3399 22.664,-0.0212 40.709,-1.9826 54.616,-4.0517 21.155,-3.414 32.711,-7.8052 34.334,-9.8443 l 1.494,2.5788 v 0.002 z m -4.0621,-7.6244 c -2.293,1.8415 -13.718,5.8932 -33.819,9.1034 -13.415,1.9244 -30.472,3.6451 -52.265,3.6662 -20.704,0.0203 -37.619,-1.375 -50.486,-3.2508 -20.414,-2.6644 -31.278,-7.4736 -35.197,-8.8759 0.3898,-0.67381 0.78666,-1.3441 1.1941,-2.0152 3.0488,1.5346 13.534,5.7926 34.227,8.7242 12.721,1.8018 29.66,3.1459 50.262,3.1247 21.69,-0.0203 38.553,-1.7762 51.883,-3.6865 20.205,-2.7799 31.077,-7.9472 32.728,-9.2428 l 1.4728,2.4527"
           id="path1351"
           inkscape:connector-curvature="0"
           style="fill:#ffff00;fill-rule:evenodd" /><path
           d="m 330.44,156.71 c -0.73904,1.1818 -14.743,6.0113 -35.373,9.5753 -13.988,2.1325 -32.234,3.9555 -55.004,3.9776 -21.633,0.0203 -39.305,-1.5196 -52.684,-3.3329 -21.656,-3.3955 -32.833,-8.1201 -36.965,-9.7896 0.39509,-0.78581 0.64908,-1.337 1.0301,-2.0708 11.895,4.736 23.124,7.5918 36.279,9.6158 13.291,1.8 30.75,3.362 52.276,3.3417 22.664,-0.0229 40.709,-1.9844 54.616,-4.0534 21.155,-3.4122 32.711,-7.8034 34.334,-9.8425 l 1.494,2.5788 h -0.002 z m -4.0603,-7.6226 c -2.293,1.8415 -13.718,5.8932 -33.819,9.1034 -13.415,1.9226 -30.472,3.6433 -52.265,3.6645 -20.704,0.0203 -37.619,-1.375 -50.485,-3.2491 -20.414,-2.6661 -31.279,-7.4754 -35.196,-8.8776 0.3898,-0.67381 0.78666,-1.3423 1.1941,-2.0135 3.0479,1.5346 13.533,5.7909 34.226,8.7224 12.72,1.8036 29.661,3.1477 50.262,3.1265 21.69,-0.0221 38.553,-1.7762 51.883,-3.6883 20.205,-2.7799 31.077,-7.9472 32.728,-9.241 l 1.4728,2.4509 v 0.002 z"
           id="path1353"
           inkscape:connector-curvature="0"
           style="fill:none;stroke:#000000;stroke-width:0.57315999;stroke-linecap:round;stroke-linejoin:round" /><path
           d="m 140.88,205.66 c 18.598,10.003 59.905,15.044 98.994,15.391 35.591,0.0564 81.958,-5.5016 99.297,-14.69 l -0.47712,-10.012 c -5.4246,8.4773 -55.113,16.609 -99.206,16.276 -44.093,-0.3325 -85.038,-7.1429 -98.687,-15.959 l 0.0794,8.9914"
           id="path1355"
           inkscape:connector-curvature="0"
           style="fill:#ffff00;fill-rule:evenodd" /><path
           d="m 340.12,204.22 8.8e-4,2.3892 c -2.606,3.1142 -18.946,7.8237 -39.436,11.14 -15.596,2.391 -35.928,4.1945 -61.262,4.1945 -24.069,0 -43.262,-1.7145 -58.148,-4.0014 -23.528,-3.4246 -38.579,-9.4245 -41.6,-11.216 l 0.0132,-2.7834 c 9.0748,6.0316 33.661,10.445 41.917,11.796 14.788,2.2719 33.868,3.9749 57.817,3.9749 25.216,0 45.434,-1.793 60.931,-4.1681 14.701,-2.1237 35.644,-7.6465 39.767,-11.324 v -0.002 z m 0.01,-8.4922 8.8e-4,2.3892 c -2.606,3.1142 -18.946,7.8237 -39.436,11.14 -15.596,2.391 -35.928,4.1945 -61.262,4.1945 -24.069,0 -43.263,-1.7145 -58.148,-4.0014 -23.528,-3.4246 -38.579,-9.4245 -41.6,-11.217 l 0.0123,-2.7834 c 9.0757,6.0325 33.661,10.447 41.917,11.796 14.788,2.2719 33.868,3.9758 57.817,3.9758 25.216,0 45.434,-1.7921 60.932,-4.169 14.701,-2.1237 35.644,-7.6465 39.767,-11.324"
           id="path1357"
           inkscape:connector-curvature="0"
           style="fill:#ffff00;fill-rule:evenodd" /><path
           d="m 340.12,204.22 8.8e-4,2.3874 c -2.606,3.1159 -18.946,7.8255 -39.437,11.142 -15.595,2.391 -35.927,4.1945 -61.262,4.1945 -24.069,0 -43.263,-1.7163 -58.148,-4.0014 -23.529,-3.4264 -38.579,-9.4262 -41.6,-11.217 l 0.0132,-2.7852 c 9.0748,6.0334 33.661,10.447 41.917,11.798 14.788,2.2701 33.868,3.9732 57.817,3.9732 25.216,0 45.434,-1.7912 60.931,-4.1663 14.701,-2.1237 35.644,-7.6465 39.767,-11.324 h 8.8e-4 z m 0.01,-8.4922 8.8e-4,2.3874 c -2.606,3.1142 -18.946,7.8237 -39.437,11.14 -15.595,2.391 -35.927,4.1945 -61.262,4.1945 -24.069,0 -43.263,-1.7145 -58.148,-4.0014 -23.529,-3.4246 -38.579,-9.4245 -41.6,-11.216 l 0.0132,-2.7852 c 9.0748,6.0325 33.661,10.447 41.917,11.796 14.788,2.2719 33.868,3.9758 57.817,3.9758 25.216,0 45.434,-1.7921 60.931,-4.169 14.701,-2.1237 35.644,-7.6465 39.767,-11.324 l 8.8e-4,0.002 z"
           id="path1359"
           inkscape:connector-curvature="0"
           style="fill:none;stroke:#000000;stroke-width:0.57282001;stroke-linecap:round;stroke-linejoin:round" /><path
           d="m 239.79,260.32 c -42.772,-0.25489 -79.421,-11.659 -87.16,-13.544 l 5.6433,8.8344 c 13.67,5.7503 49.424,14.32 81.927,13.371 32.504,-0.94809 60.91,-3.466 80.928,-13.211 l 5.7862,-9.1555 c -13.642,6.425 -60.068,13.639 -87.125,13.705"
           id="path1361"
           inkscape:connector-curvature="0"
           style="fill:#ffff00;fill-rule:evenodd" /><path
           d="m 323.3,253.72 c -0.85016,1.2973 -1.7171,2.5806 -2.5972,3.8294 -9.4417,3.3276 -24.319,6.8227 -30.597,7.8422 -12.823,2.6441 -32.664,4.5958 -50.273,4.6046 -37.889,-0.55475 -68.905,-7.9737 -83.496,-14.301 l -1.1773,-2.0241 0.19313,-0.30427 1.9966,0.77435 c 25.948,9.2816 55.091,12.985 82.697,13.652 17.538,0.0617 35.095,-2.01 49.291,-4.5491 21.772,-4.3621 30.575,-7.65 33.276,-9.1405 l 0.68613,-0.38541 v 0.002 z m 5.0163,-8.277 c 0.022,0.0256 0.0441,0.052 0.0653,0.0776 -0.63585,1.0733 -1.2911,2.1652 -1.9622,3.2623 -5.0366,1.8018 -18.703,5.7997 -38.659,8.591 -13.149,1.7895 -21.322,3.5242 -47.479,4.034 -49.016,-1.2471 -80.751,-10.832 -88.289,-13.197 l -1.1174,-2.1414 c 28.406,7.4154 57.421,12.592 89.408,13.121 23.931,-0.50977 34.111,-2.2719 47.15,-4.0481 23.271,-3.6204 34.996,-7.4516 38.516,-8.5575 -0.045,-0.0635 -0.097,-0.13053 -0.15521,-0.19844 l 2.5231,-0.94192"
           id="path1363"
           inkscape:connector-curvature="0"
           style="fill:#ffff00;fill-rule:evenodd" /><path
           d="m 323.3,253.72 c -0.85016,1.2991 -1.7171,2.5823 -2.5963,3.8294 -9.4417,3.3293 -24.319,6.8245 -30.597,7.844 -12.824,2.6423 -32.665,4.594 -50.274,4.6029 -37.89,-0.55474 -68.905,-7.9719 -83.496,-14.299 l -1.1773,-2.0241 0.19225,-0.30427 1.9966,0.77435 c 25.948,9.2834 55.091,12.987 82.698,13.652 17.538,0.0617 35.095,-2.01 49.292,-4.5491 21.771,-4.3621 30.574,-7.65 33.275,-9.1405 l 0.68701,-0.38541 h -8.8e-4 z m 5.0172,-8.2753 c 0.022,0.0256 0.0441,0.0503 0.0653,0.0776 -0.63585,1.0733 -1.2911,2.1652 -1.9622,3.2623 -5.0357,1.8 -18.702,5.7988 -38.659,8.5893 -13.149,1.7912 -21.322,3.526 -47.479,4.034 -49.015,-1.2471 -80.75,-10.831 -88.289,-13.195 l -1.1174,-2.1431 c 28.406,7.4154 57.422,12.592 89.408,13.121 23.931,-0.50976 34.112,-2.2719 47.152,-4.0499 23.271,-3.6186 34.996,-7.4498 38.515,-8.5558 -0.0441,-0.0635 -0.0961,-0.13053 -0.15433,-0.19932 l 2.5231,-0.9428 -0.002,0.002 z"
           id="path1365"
           inkscape:connector-curvature="0"
           style="fill:none;stroke:#000000;stroke-width:0.54984999;stroke-linecap:round;stroke-linejoin:round" /><path
           d="m 328.83,197.76 c 0.13873,28.137 -14.26,53.386 -25.858,64.525 -16.408,15.759 -38.163,25.896 -63.569,26.363 -28.37,0.52117 -55.12,-17.974 -62.295,-26.099 -14.028,-15.885 -25.449,-36.057 -25.815,-63.243 1.7376,-30.709 13.793,-52.1 31.268,-66.769 17.475,-14.669 40.743,-21.813 60.121,-21.302 22.358,0.59003 48.475,11.558 66.521,33.332 11.823,14.266 16.943,29.748 19.627,53.193 z m -89.186,-96.342 c 54.485,0 99.296,44.338 99.296,98.703 0,54.364 -44.811,98.704 -99.296,98.704 -54.485,0 -98.924,-44.339 -98.924,-98.704 0,-54.365 44.439,-98.703 98.924,-98.703"
           id="path3966"
           inkscape:connector-curvature="0"
           style="fill:#ffff00;fill-rule:evenodd" /><path
           d="m 239.91,101.08 c 54.534,0 99.011,44.483 99.011,99.022 0,54.538 -44.478,99.02 -99.011,99.02 -54.534,0 -99.011,-44.481 -99.011,-99.02 0,-54.539 44.478,-99.022 99.011,-99.022 z m 0,2.1784 c 53.096,0 96.833,43.582 96.833,96.844 0,53.26 -43.736,96.842 -96.833,96.842 -53.096,0 -96.832,-43.582 -96.832,-96.842 0,-53.26 43.736,-96.844 96.832,-96.844 z"
           id="path1371"
           inkscape:connector-curvature="0"
           style="fill:none;stroke:#000000;stroke-width:0.57282001;stroke-linecap:round;stroke-linejoin:round" /><path
           d="m 239.99,109.31 c 49.731,0 90.693,40.821 90.693,90.704 0,49.884 -40.963,90.703 -90.693,90.703 -49.73,0 -90.693,-40.819 -90.693,-90.703 0,-49.883 40.964,-90.704 90.693,-90.704 z m 0,2.1784 c 48.537,0 88.515,39.839 88.515,88.525 0,48.685 -39.979,88.524 -88.515,88.524 -48.536,0 -88.515,-39.839 -88.515,-88.524 0,-48.686 39.979,-88.525 88.515,-88.525 z"
           id="path1375"
           inkscape:connector-curvature="0"
           style="fill:none;stroke:#000000;stroke-width:0.57282001;stroke-linecap:round;stroke-linejoin:round" /><path
           d="m 243.12,99.531 v 1.0938 h -6.25 v -1.0625 h -2.1562 v 201.22 h 2.1562 v -0.9375 h 6.2812 v 0.96875 h 2.1562 l -0.0312,-201.28 H 243.12 z"
           id="path1377"
           inkscape:connector-curvature="0"
           style="fill:#ffff00;fill-rule:evenodd" /><path
           d="m 237.02,100.68 h 6.019"
           id="path1379"
           inkscape:connector-curvature="0"
           style="fill:none;stroke:#000000;stroke-width:0.57282001;stroke-linecap:round;stroke-linejoin:round" /><path
           d="m 237.03,299.64 h 6.0481"
           id="path1381"
           inkscape:connector-curvature="0"
           style="fill:none;stroke:#000000;stroke-width:0.57282001;stroke-linecap:round;stroke-linejoin:round" /><path
           d="m 243.13,99.546 h 2.1598 l 0.0185,201.25 h -2.1616 l -0.0159,-201.25 h -8.8e-4 z m -8.4213,0.0018 h 2.1766 l 0.003,201.25 H 234.71 v -201.25 h -8.8e-4 z"
           id="path1385"
           inkscape:connector-curvature="0"
           style="fill:none;stroke:#000000;stroke-width:0.57296002;stroke-linecap:round;stroke-linejoin:round" /><path
           d="m 140.54,195.88 c 12.416,-11.431 58.227,-18.843 98.872,-18.65 40.645,0.19138 88.781,8.5425 99.252,18.407 l 0.10495,8.5249 c -8.7697,-8.2488 -46.167,-18.086 -99.277,-18.196 -53.111,-0.11025 -91.672,9.9977 -98.954,18.417 l 0.002,-8.502"
           id="path1387"
           inkscape:connector-curvature="0"
           style="fill:#ffff00;fill-rule:evenodd" /><path
           d="m 140.52,196.28 v 7.3572"
           id="path1389"
           inkscape:connector-curvature="0"
           style="fill:none;stroke:#000000;stroke-width:0.57243001;stroke-linecap:round;stroke-linejoin:round" /><path
           d="m 338.99,196.58 v 7.3554"
           id="path1391"
           inkscape:connector-curvature="0"
           style="fill:none;stroke:#000000;stroke-width:0.57243001;stroke-linecap:round;stroke-linejoin:round" /><path
           d="m 239.95,184.77 c 23.383,-0.0432 46.069,2.2172 64.065,5.7194 18.569,3.7139 31.637,8.3573 36.104,13.573 l -0.005,2.5806 c -5.3884,-6.4885 -22.973,-11.247 -36.518,-13.966 -17.859,-3.4757 -40.394,-5.7185 -63.647,-5.6736 -24.538,0.0441 -47.387,2.3698 -64.984,5.8014 -14.12,2.8019 -32.952,8.3696 -35.303,13.858 v -2.689 c 1.292,-3.7985 15.313,-9.4792 34.985,-13.417 17.728,-3.4572 40.62,-5.7397 65.302,-5.7864 h 8.9e-4 z m 0.01,-8.4922 c 23.383,-0.0423 46.069,2.2172 64.065,5.7194 18.569,3.7139 31.637,8.3573 36.104,13.573 l -0.005,2.5806 c -5.3884,-6.4885 -22.973,-11.247 -36.518,-13.966 -17.859,-3.4757 -40.394,-5.7185 -63.647,-5.6736 -24.538,0.0441 -47.277,2.3698 -64.875,5.8014 -13.626,2.5832 -33.227,8.3696 -35.412,13.858 v -2.689 c 1.292,-3.7588 15.597,-9.6414 34.986,-13.417 17.728,-3.4572 40.62,-5.7397 65.302,-5.7864"
           id="path1393"
           inkscape:connector-curvature="0"
           style="fill:#ffff00;fill-rule:evenodd" /><path
           d="m 239.95,184.77 c 23.383,-0.0432 46.07,2.2154 64.065,5.7194 18.569,3.7121 31.637,8.3556 36.105,13.571 l -0.005,2.5823 c -5.3884,-6.4902 -22.973,-11.248 -36.518,-13.968 -17.858,-3.474 -40.393,-5.7168 -63.647,-5.6736 -24.538,0.0459 -47.387,2.3698 -64.984,5.8032 -14.12,2.8019 -32.951,8.3679 -35.302,13.858 v -2.689 c 1.2911,-3.8003 15.313,-9.4792 34.984,-13.417 17.729,-3.4572 40.62,-5.7415 65.302,-5.7864 z m 0.01,-8.4922 c 23.383,-0.0423 46.07,2.2172 64.065,5.7194 18.569,3.7139 31.637,8.3556 36.105,13.571 l -0.005,2.5823 c -5.3884,-6.4885 -22.973,-11.247 -36.518,-13.966 -17.858,-3.4757 -40.393,-5.7185 -63.647,-5.6736 -24.538,0.0441 -47.276,2.3698 -64.875,5.8014 -13.626,2.5832 -33.226,8.3696 -35.412,13.86 v -2.6908 c 1.2911,-3.7588 15.597,-9.6414 34.985,-13.417 17.729,-3.4572 40.62,-5.7397 65.302,-5.7864 z"
           id="path1395"
           inkscape:connector-curvature="0"
           style="fill:none;stroke:#000000;stroke-width:0.57282001;stroke-linecap:round;stroke-linejoin:round" /><path
           d="m 239.48,132.96 c 36.849,-0.18433 68.99,5.1523 83.695,12.685 l 5.3638,9.279 c -12.781,-6.888 -47.456,-14.05 -89.005,-12.979 -33.854,0.20814 -70.027,3.7271 -88.176,13.41 l 6.4035,-10.709 c 14.895,-7.7241 50.022,-11.643 81.72,-11.684"
           id="path1397"
           inkscape:connector-curvature="0"
           style="fill:#ffff00;fill-rule:evenodd" /><path
           d="m 324.11,147.15 3.6502,5.8605"
           id="path1399"
           inkscape:connector-curvature="0"
           style="fill:none;stroke:#000000;stroke-width:0.57409;stroke-linecap:round;stroke-linejoin:round" /><path
           d="m 239.97,140.62 c 21.017,-0.0573 41.326,1.1298 57.477,4.0437 15.041,2.7993 29.385,6.9991 31.435,9.2622 l 1.5892,2.8099 c -4.9881,-3.257 -17.4,-6.8836 -33.339,-9.906 -16.007,-3.0083 -36.301,-4.0049 -57.201,-3.9502 -23.722,-0.0811 -42.152,1.1695 -57.969,3.9273 -16.727,3.1318 -28.333,7.6015 -31.197,9.727 l 1.5592,-2.9695 c 5.5631,-2.8381 14.39,-6.2592 29.223,-8.9297 16.357,-2.988 34.983,-3.8858 58.423,-4.0146 h 8.8e-4 z m -0.009,-8.4826 c 20.114,-0.0547 39.972,1.0663 55.452,3.8506 12.209,2.3751 24.283,6.0872 28.703,9.3874 l 2.3256,3.6971 c -3.9527,-4.3965 -18.836,-8.5602 -31.974,-10.892 -15.362,-2.6494 -34.396,-3.698 -54.508,-3.8656 -21.108,0.0573 -40.615,1.3503 -55.752,4.1081 -14.442,2.7481 -23.76,6.0016 -27.703,8.5408 l 2.0451,-3.0868 c 5.4414,-2.8646 14.232,-5.4954 25.303,-7.6447 15.25,-2.7764 34.877,-4.0376 56.108,-4.0949"
           id="path1401"
           inkscape:connector-curvature="0"
           style="fill:#ffff00;fill-rule:evenodd" /><path
           d="m 239.97,140.62 c 21.017,-0.0556 41.325,1.1298 57.476,4.0437 15.041,2.7993 29.385,7.0009 31.436,9.2604 l 1.5901,2.8099 c -4.9881,-3.257 -17.401,-6.8836 -33.339,-9.906 -16.006,-3.0083 -36.3,-4.0049 -57.2,-3.9502 -23.722,-0.0811 -42.152,1.1712 -57.969,3.9291 -16.728,3.13 -28.334,7.6015 -31.197,9.7261 l 1.5583,-2.9704 c 5.5631,-2.8381 14.39,-6.2592 29.223,-8.9297 16.357,-2.988 34.983,-3.8841 58.423,-4.0128 h -8.8e-4 z m -0.009,-8.4843 c 20.113,-0.0529 39.972,1.068 55.452,3.8506 12.209,2.3768 24.283,6.0872 28.704,9.3892 l 2.3256,3.6954 c -3.9536,-4.3947 -18.836,-8.5593 -31.974,-10.892 -15.361,-2.6494 -34.395,-3.698 -54.508,-3.8656 -21.108,0.0591 -40.615,1.352 -55.752,4.1081 -14.441,2.7481 -23.76,6.0016 -27.703,8.5425 l 2.0451,-3.0868 c 5.4414,-2.8646 14.232,-5.4954 25.303,-7.6465 15.249,-2.7764 34.876,-4.0358 56.108,-4.0949 z"
           id="path1403"
           inkscape:connector-curvature="0"
           style="fill:none;stroke:#000000;stroke-width:0.57315999;stroke-linecap:round;stroke-linejoin:round" /><path
           d="m 289.15,241.26 c -18.218,-3.4008 -36.469,-3.8947 -49.217,-3.7447 -61.407,0.71967 -81.244,12.609 -83.665,16.209 l -4.5894,-7.4815 c 15.634,-11.332 49.073,-17.687 88.587,-17.037 20.518,0.33602 38.224,1.6986 53.119,4.5835 l -4.2358,7.4727"
           id="path1405"
           inkscape:connector-curvature="0"
           style="fill:#ffff00;fill-rule:evenodd" /><path
           d="m 152.7,247.28 3.0126,5.1867"
           id="path1407"
           inkscape:connector-curvature="0"
           style="fill:none;stroke:#000000;stroke-width:0.57282001;stroke-linecap:round;stroke-linejoin:round" /><path
           d="m 239.58,236.46 c 17.082,0.25488 33.85,0.96044 50.033,3.9784 l -1.172,2.069 c -15.031,-2.7746 -31.055,-3.8365 -48.803,-3.7518 -22.662,-0.1755 -45.585,1.9412 -65.541,7.6685 -6.2968,1.7507 -16.721,5.8006 -17.785,9.1458 l -1.165,-1.9244 c 0.33513,-1.9773 6.6364,-6.0792 18.413,-9.3883 22.858,-6.5458 44.239,-7.6491 66.019,-7.799 l -8.8e-4,0.002 z m 0.77519,-8.5963 c 17.698,0.33073 35.975,1.1492 53.74,4.6681 l -1.2206,2.1555 c -16.041,-3.1856 -31.369,-4.2466 -52.414,-4.5702 -22.735,0.0397 -46.85,1.6625 -68.778,8.0372 -7.0791,2.062 -19.297,6.5202 -19.705,10.048 l -1.165,-2.0655 c 0.26457,-3.2059 10.842,-7.388 20.358,-10.156 22.096,-6.4241 46.275,-8.076 69.186,-8.1174"
           id="path1409"
           inkscape:connector-curvature="0"
           style="fill:#ffff00;fill-rule:evenodd" /><path
           d="m 239.58,236.46 c 17.082,0.25488 33.849,0.96044 50.033,3.9784 l -1.172,2.069 c -15.031,-2.7746 -31.055,-3.8365 -48.803,-3.75 -22.663,-0.17727 -45.585,1.9394 -65.541,7.6668 -6.2968,1.7524 -16.721,5.8006 -17.784,9.1458 l -1.1659,-1.9226 c 0.33601,-1.9773 6.6363,-6.081 18.414,-9.3901 22.858,-6.5458 44.239,-7.6491 66.019,-7.799 v 0.002 z m 0.77519,-8.5963 c 17.698,0.33073 35.975,1.1492 53.74,4.6681 l -1.2206,2.1537 c -16.042,-3.1847 -31.369,-4.2466 -52.415,-4.5702 -22.735,0.0414 -46.851,1.6625 -68.778,8.0372 -7.0791,2.062 -19.297,6.5202 -19.704,10.05 l -1.1659,-2.0655 c 0.26545,-3.2059 10.842,-7.388 20.358,-10.156 22.096,-6.4241 46.275,-8.076 69.186,-8.1174 z"
           id="path1411"
           inkscape:connector-curvature="0"
           style="fill:none;stroke:#000000;stroke-width:0.54984999;stroke-linecap:round;stroke-linejoin:round" /><path
           d="m 156.9,144.52 c 30.419,-0.39511 170.91,85.849 171.32,101.73 l -8.7035,13.341 c -3.93,-18.44 -146.48,-102.37 -170,-100.78 l 7.3789,-14.29"
           id="path1419"
           inkscape:connector-curvature="0"
           style="fill:#ffff00;fill-rule:evenodd" /><path
           d="m 327.58,247.38 -7.3789,11.449"
           id="path1421"
           inkscape:connector-curvature="0"
           style="fill:none;stroke:#000000;stroke-width:0.57297999;stroke-linecap:round;stroke-linejoin:round" /><path
           d="m 156.67,145.27 -6.86,12.72"
           id="path1423"
           inkscape:connector-curvature="0"
           style="fill:none;stroke:#000000;stroke-width:0.57297999;stroke-linecap:round;stroke-linejoin:round" /><path
           d="m 148.65,158.3 c 5.6468,-3.8294 47.139,14.654 90.555,40.832 43.301,26.254 84.678,55.921 80.943,61.475 l -1.2294,1.9306 -0.56354,0.44626 c 0.12083,-0.0882 0.74345,-0.84755 -0.0609,-2.906 -1.8449,-6.0704 -31.195,-29.491 -79.894,-58.895 -47.475,-28.31 -87.041,-45.371 -90.997,-40.495 l 1.247,-2.3874 h -8.9e-4 z m 180.44,88.925 c 3.57,-7.0503 -34.916,-36.044 -82.632,-64.272 -48.813,-27.664 -83.994,-43.951 -90.42,-39.095 l -1.4287,2.5973 c -0.0115,0.14463 0.052,-0.17551 0.35364,-0.41011 1.1694,-1.0195 3.1052,-0.95074 3.9792,-0.96661 11.066,0.16581 42.668,14.709 87.005,40.128 19.428,11.316 82.071,51.491 81.833,62.789 0.0168,0.97102 0.0802,1.1695 -0.28574,1.6501 l 1.5936,-2.4218"
           id="path1425"
           inkscape:connector-curvature="0"
           style="fill:#ffff00;fill-rule:evenodd" /><path
           d="m 148.65,158.29 c 5.646,-3.8294 47.139,14.655 90.555,40.834 43.301,26.254 84.677,55.921 80.942,61.473 l -1.2285,1.9323 -0.56354,0.4445 c 0.12083,-0.0864 0.74345,-0.84755 -0.0609,-2.906 -1.8449,-6.0704 -31.195,-29.491 -79.894,-58.895 -47.475,-28.309 -87.041,-45.371 -90.997,-40.494 l 1.247,-2.3892 h -8.9e-4 z m 180.44,88.927 c 3.57,-7.052 -34.916,-36.044 -82.632,-64.272 -48.813,-27.666 -83.994,-43.951 -90.42,-39.095 l -1.4278,2.5991 c -0.0124,0.14287 0.052,-0.17727 0.35364,-0.4101 1.1685,-1.0195 3.1052,-0.95074 3.9792,-0.96662 11.065,0.16581 42.667,14.709 87.006,40.128 19.428,11.315 82.071,51.491 81.832,62.789 0.0168,0.97102 0.0803,1.1712 -0.28485,1.6519 l 1.5936,-2.4236 v -0.002 z"
           id="path1427"
           inkscape:connector-curvature="0"
           style="fill:none;stroke:#000000;stroke-width:0.57300001;stroke-linecap:round;stroke-linejoin:round" /><path
           d="m 180.6,211.01 c 0,16.27 6.6628,30.987 17.458,41.742 10.816,10.778 25.513,17.579 41.809,17.579 16.381,0 31.247,-6.6525 42.016,-17.389 10.769,-10.735 17.444,-25.551 17.446,-41.878 h -8.8e-4 v -79.189 l -118.74,-0.14111 0.0123,79.276"
           id="path1429"
           inkscape:connector-curvature="0"
           style="fill:#ffffff;fill-rule:evenodd" /><path
           d="m 180.6,211.01 c 0,16.271 6.6628,30.987 17.457,41.742 10.815,10.778 25.512,17.579 41.809,17.579 16.381,0 31.247,-6.6525 42.016,-17.389 10.769,-10.735 17.443,-25.552 17.446,-41.88 h -0.002 v -79.189 l -118.74,-0.14111 0.0123,79.278 h 0.002 z"
           id="path1431"
           inkscape:connector-curvature="0"
           style="fill:none;stroke:#000000;stroke-width:0.67036998" /><path
           d="m 182.82,211.12 v 0.045 c 0,15.557 6.4423,29.724 16.776,40.009 10.354,10.305 24.614,16.712 40.214,16.712 15.68,0 29.912,-6.3606 40.221,-16.626 10.309,-10.2654 16.697,-24.433 16.699,-40.046 h -0.002 V 134.39 l -113.84,-0.0203 -0.0697,76.75 m 91.022,-53.747 0.004,48.889 -0.0423,5.1717 h 8.8e-4 c 0,1.3626 -0.082,2.914 -0.23988,4.2333 -0.926,7.7311 -4.481,14.467 -9.7451,19.708 -6.1636,6.1375 -14.672,9.9413 -24.047,9.9413 -9.327,0 -17.639,-3.9379 -23.829,-10.1 -6.3488,-6.3182 -10.029,-14.984 -10.029,-23.945 l -0.0132,-54.023 67.941,0.12259"
           id="path1433"
           inkscape:connector-curvature="0"
           style="fill:#ff0000;fill-rule:evenodd" /><path
           d="m 182.82,211.12 v 0.045 c 0,15.557 6.4414,29.724 16.775,40.009 10.354,10.305 24.614,16.712 40.214,16.712 15.681,0 29.912,-6.3606 40.222,-16.626 10.308,-10.265 16.697,-24.433 16.699,-40.044 h -0.002 V 134.39 l -113.84,-0.0185 -0.0697,76.748 m 91.022,-53.747 0.004,48.891 -0.0414,5.1717 h 8.8e-4 c 0,1.3608 -0.082,2.9122 -0.24076,4.2333 -0.92512,7.7294 -4.4801,14.467 -9.7451,19.708 -6.1636,6.1357 -14.671,9.9413 -24.047,9.9413 -9.327,0 -17.639,-3.9379 -23.829,-10.1 -6.3497,-6.32 -10.03,-14.986 -10.03,-23.947 l -0.0132,-54.023 67.94,0.12259 0.002,0.002 z"
           id="path1435"
           inkscape:connector-curvature="0"
           style="fill:none;stroke:#000000;stroke-width:0.50734001" /><use
           x="0"
           y="0"
           width="600"
           height="400"
           transform="translate(-20.745,-0.040565)"
           xlink:href="#use3436"
           id="use3438" /><use
           x="0"
           y="0"
           width="600"
           height="400"
           transform="translate(-0.06747,51.8)"
           xlink:href="#path1485"
           id="use3434" /><use
           x="0"
           y="0"
           width="600"
           height="400"
           transform="translate(-20.799,0.05071)"
           xlink:href="#use3438"
           id="use3440" /><use
           x="0"
           y="0"
           width="600"
           height="400"
           transform="translate(20.818,-25.743)"
           xlink:href="#use3434"
           id="use3436" /><path
           d="m 232.63,176.39 v 0.005 c 0,2.2119 0.84927,4.2272 2.2118,5.6894 1.3652,1.4667 3.2454,2.3777 5.302,2.3777 2.0672,0 3.9439,-0.90487 5.3029,-2.3654 1.3581,-1.4587 2.2021,-3.4722 2.2021,-5.693 v -10.768 l -14.992,-0.0123 -0.0273,10.766"
           id="path1485"
           inkscape:connector-curvature="0"
           style="fill:#003399" /><g
           id="g6250"><use
             x="0"
             y="0"
             width="600"
             height="400"
             transform="translate(10.608,0)"
             xlink:href="#path1539"
             id="use4364" /><path
             d="m 190.19,154.43 c 0.13493,-5.521 4.0524,-6.828 4.0806,-6.8474 0.0282,-0.0185 4.2314,1.4076 4.2173,6.8986 l -8.2978,-0.0512"
             id="path1497"
             inkscape:connector-curvature="0"
             style="fill:#ffff00;fill-rule:evenodd" /><path
             d="m 186.81,147.68 -0.68172,6.3465 4.1406,0.009 c 0.0397,-5.2493 3.9748,-6.1225 4.07,-6.1031 0.0891,-0.005 3.9889,1.1589 4.0929,6.1031 h 4.1511 l -0.7505,-6.3932 -15.022,0.0379"
             id="path1499"
             inkscape:connector-curvature="0"
             style="fill:#ffff00;fill-rule:evenodd" /><path
             d="m 186.81,147.69 -0.68172,6.3447 4.1406,0.009 c 0.0397,-5.2493 3.9739,-6.1225 4.0691,-6.1031 0.0891,-0.005 3.9889,1.1606 4.0929,6.1031 h 4.1511 l -0.74962,-6.3932 -15.022,0.0379 v 0.002 z"
             id="path1501"
             inkscape:connector-curvature="0"
             style="fill:none;stroke:#000000;stroke-width:0.49936" /><path
             d="m 185.85,154.06 h 16.946 c 0.35629,0 0.6482,0.35277 0.6482,0.78404 0,0.42863 -0.29103,0.78141 -0.6482,0.78141 H 185.85 c -0.35718,0 -0.64909,-0.35102 -0.64909,-0.78141 0,-0.43127 0.29191,-0.78404 0.64909,-0.78404"
             id="path1503"
             inkscape:connector-curvature="0"
             style="fill:#ffff00;fill-rule:evenodd" /><path
             d="m 185.85,154.06 h 16.946 c 0.35717,0 0.64908,0.35277 0.64908,0.78404 0,0.43039 -0.29191,0.78141 -0.64908,0.78141 H 185.85 c -0.35717,0 -0.64908,-0.35102 -0.64908,-0.78141 0,-0.43127 0.29191,-0.78404 0.64908,-0.78404 z"
             id="path1505"
             inkscape:connector-curvature="0"
             style="fill:none;stroke:#000000;stroke-width:0.49943" /><path
             d="m 192.01,154.03 c 0.0185,-3.3126 2.2621,-4.2501 2.2736,-4.2483 8.8e-4,0 2.3415,0.96661 2.36,4.2483 h -4.6335"
             id="path1507"
             inkscape:connector-curvature="0"
             style="fill:#ffff00;fill-rule:evenodd" /><path
             d="m 192.01,154.03 c 0.0185,-3.3126 2.2621,-4.2501 2.2736,-4.2483 8.8e-4,0 2.3423,0.96661 2.3609,4.2483 h -4.6344"
             id="path1509"
             inkscape:connector-curvature="0"
             style="fill:none;stroke:#000000;stroke-width:0.49702999" /><path
             d="m 186.21,145.06 h 16.245 c 0.34218,0 0.62263,0.31662 0.62263,0.70467 0,0.38541 -0.28045,0.70468 -0.62263,0.70468 H 186.21 c -0.34218,0 -0.62263,-0.3175 -0.62263,-0.70468 0,-0.38805 0.28045,-0.70467 0.62263,-0.70467"
             id="path1511"
             inkscape:connector-curvature="0"
             style="fill:#ffff00;fill-rule:evenodd" /><path
             d="m 186.21,145.05 h 16.245 c 0.34218,0 0.62263,0.31839 0.62263,0.70468 0,0.38717 -0.28045,0.70467 -0.62263,0.70467 H 186.21 c -0.34218,0 -0.62263,-0.31573 -0.62263,-0.70467 0,-0.38629 0.28045,-0.70468 0.62263,-0.70468 z"
             id="path1513"
             inkscape:connector-curvature="0"
             style="fill:none;stroke:#000000;stroke-width:0.49901" /><path
             d="m 186.55,146.47 h 15.539 c 0.32719,0 0.59617,0.31662 0.59617,0.70379 0,0.38805 -0.2681,0.70467 -0.59617,0.70467 H 186.55 c -0.32719,0 -0.59529,-0.31662 -0.59529,-0.70467 0,-0.38717 0.2681,-0.70379 0.59529,-0.70379"
             id="path1515"
             inkscape:connector-curvature="0"
             style="fill:#ffff00;fill-rule:evenodd" /><path
             d="m 186.55,146.47 h 15.538 c 0.32719,0 0.59529,0.31662 0.59529,0.70379 0,0.38805 -0.2681,0.70467 -0.59529,0.70467 H 186.55 c -0.32719,0 -0.59529,-0.31662 -0.59529,-0.70467 0,-0.38717 0.2681,-0.70379 0.59529,-0.70379 z"
             id="path1517"
             inkscape:connector-curvature="0"
             style="fill:none;stroke:#000000;stroke-width:0.49901" /><use
             x="0"
             y="0"
             width="600"
             height="400"
             transform="translate(-5.2791,-3.1627)"
             xlink:href="#use4656"
             id="use4658" /><path
             d="m 191.57,135.88 1.2267,0.002 v 0.87136 h 0.89513 v -0.89076 l 1.2567,0.004 v 0.88723 h 0.89778 v -0.89076 h 1.2576 l -0.002,2.0117 c 0,0.31574 -0.25398,0.52035 -0.54854,0.52035 h -4.4113 c -0.29633,0 -0.56972,-0.23724 -0.5706,-0.52652 l -0.003,-1.9879 h 8.8e-4 z"
             id="path1521"
             inkscape:connector-curvature="0"
             style="fill:none;stroke:#000000;stroke-width:0.50024998" /><path
             d="m 196.19,138.57 0.27692,6.4532 -4.3028,-0.0159 0.28485,-6.4506 3.7419,0.015"
             id="path1523"
             inkscape:connector-curvature="0"
             style="fill:#ffff00;fill-rule:evenodd" /><path
             d="m 196.19,138.57 0.27691,6.4514 -4.3028,-0.0159 0.28486,-6.4523 3.741,0.0168"
             id="path1525"
             inkscape:connector-curvature="0"
             style="fill:none;stroke:#000000;stroke-width:0.49897999" /><use
             x="0"
             y="0"
             width="600"
             height="400"
             transform="translate(10.608,0)"
             xlink:href="#path1535"
             id="use4656" /><use
             x="0"
             y="0"
             width="600"
             height="400"
             transform="translate(10.609,0)"
             xlink:href="#path1541"
             id="use4366" /><use
             x="0"
             y="0"
             width="600"
             height="400"
             transform="translate(10.609,-0.010585)"
             xlink:href="#path1537"
             id="use4660" /><path
             d="m 186.3,139.04 1.2003,0.002 v 0.87136 h 0.87662 v -0.89077 l 1.2294,0.004 v 0.88724 h 0.87926 v -0.89077 l 1.2302,0.002 -0.002,2.0117 c 0,0.31398 -0.2487,0.51859 -0.5362,0.51859 h -4.3169 c -0.29014,0 -0.55824,-0.23548 -0.55824,-0.52741 l -0.002,-1.987"
             id="path1535"
             inkscape:connector-curvature="0"
             style="fill:#ffff00;fill-rule:evenodd" /><path
             d="m 186.3,139.04 1.1994,0.003 v 0.87224 h 0.8775 v -0.89253 l 1.2294,0.004 v 0.889 h 0.87926 v -0.89253 l 1.2302,0.002 -0.002,2.0117 c 0,0.31398 -0.2487,0.51859 -0.5362,0.51859 h -4.3169 c -0.28926,0 -0.55824,-0.23548 -0.55913,-0.52564 l -0.003,-1.9888 h 8.8e-4 z"
             id="path1537"
             inkscape:connector-curvature="0"
             style="fill:none;stroke:#000000;stroke-width:0.50016999" /><path
             d="m 190.94,141.56 0.13141,3.4775 -4.1264,0.002 0.11641,-3.4793 h 3.8786"
             id="path1539"
             inkscape:connector-curvature="0"
             style="fill:#ffff00;fill-rule:evenodd" /><path
             d="m 190.94,141.56 0.13141,3.4775 -4.1256,0.002 0.11641,-3.4793 h 3.8786 -8.9e-4 z"
             id="path1541"
             inkscape:connector-curvature="0"
             style="fill:none;stroke:#000000;stroke-width:0.50128001" /><path
             d="m 193.9,140.61 c -0.0265,-0.62706 0.87661,-0.63411 0.86603,0 v 1.5364 H 193.9 V 140.61"
             id="path1543"
             inkscape:connector-curvature="0"
             style="fill-rule:evenodd" /><use
             x="0"
             y="0"
             width="600"
             height="400"
             transform="translate(10.641,0)"
             xlink:href="#path1547"
             id="use4362" /><path
             d="m 188.57,142.84 c -0.003,-0.6059 0.83693,-0.61824 0.82635,0 v 1.1871 H 188.57 V 142.84"
             id="path1547"
             inkscape:connector-curvature="0"
             style="fill-rule:evenodd" /></g><use
           x="0"
           y="0"
           width="600"
           height="400"
           transform="translate(-45.205,0)"
           xlink:href="#use4982"
           id="use4984" /><use
           x="0"
           y="0"
           width="600"
           height="400"
           transform="translate(90.919,-46.32)"
           xlink:href="#use4980"
           id="use4982" /><g
           transform="translate(0,46.32)"
           id="use4980"><use
             x="0"
             y="0"
             width="600"
             height="400"
             transform="translate(10.608,0)"
             xlink:href="#path1539"
             id="use5166" /><path
             d="m 190.19,154.43 c 0.13493,-5.521 4.0524,-6.828 4.0806,-6.8474 0.0282,-0.0185 4.2314,1.4076 4.2173,6.8986 l -8.2978,-0.0512"
             id="path5168"
             inkscape:connector-curvature="0"
             style="fill:#ffff00;fill-rule:evenodd" /><path
             d="m 186.81,147.68 -0.68172,6.3465 4.1406,0.009 c 0.0397,-5.2493 3.9748,-6.1225 4.07,-6.1031 0.0891,-0.005 3.9889,1.1589 4.0929,6.1031 h 4.1511 l -0.7505,-6.3932 -15.022,0.0379"
             id="path5170"
             inkscape:connector-curvature="0"
             style="fill:#ffff00;fill-rule:evenodd" /><path
             d="m 186.81,147.69 -0.68172,6.3447 4.1406,0.009 c 0.0397,-5.2493 3.9739,-6.1225 4.0691,-6.1031 0.0891,-0.005 3.9889,1.1606 4.0929,6.1031 h 4.1511 l -0.74962,-6.3932 -15.022,0.0379 v 0.002 z"
             id="path5172"
             inkscape:connector-curvature="0"
             style="fill:none;stroke:#000000;stroke-width:0.49936" /><path
             d="m 185.85,154.06 h 16.946 c 0.35629,0 0.6482,0.35277 0.6482,0.78404 0,0.42863 -0.29103,0.78141 -0.6482,0.78141 H 185.85 c -0.35718,0 -0.64909,-0.35102 -0.64909,-0.78141 0,-0.43127 0.29191,-0.78404 0.64909,-0.78404"
             id="path5174"
             inkscape:connector-curvature="0"
             style="fill:#ffff00;fill-rule:evenodd" /><path
             d="m 185.85,154.06 h 16.946 c 0.35717,0 0.64908,0.35277 0.64908,0.78404 0,0.43039 -0.29191,0.78141 -0.64908,0.78141 H 185.85 c -0.35717,0 -0.64908,-0.35102 -0.64908,-0.78141 0,-0.43127 0.29191,-0.78404 0.64908,-0.78404 z"
             id="path5176"
             inkscape:connector-curvature="0"
             style="fill:none;stroke:#000000;stroke-width:0.49943" /><path
             d="m 192.01,154.03 c 0.0185,-3.3126 2.2621,-4.2501 2.2736,-4.2483 8.8e-4,0 2.3415,0.96661 2.36,4.2483 h -4.6335"
             id="path5178"
             inkscape:connector-curvature="0"
             style="fill:#ffff00;fill-rule:evenodd" /><path
             d="m 192.01,154.03 c 0.0185,-3.3126 2.2621,-4.2501 2.2736,-4.2483 8.8e-4,0 2.3423,0.96661 2.3609,4.2483 h -4.6344"
             id="path5180"
             inkscape:connector-curvature="0"
             style="fill:none;stroke:#000000;stroke-width:0.49702999" /><path
             d="m 186.21,145.06 h 16.245 c 0.34218,0 0.62263,0.31662 0.62263,0.70467 0,0.38541 -0.28045,0.70468 -0.62263,0.70468 H 186.21 c -0.34218,0 -0.62263,-0.3175 -0.62263,-0.70468 0,-0.38805 0.28045,-0.70467 0.62263,-0.70467"
             id="path5182"
             inkscape:connector-curvature="0"
             style="fill:#ffff00;fill-rule:evenodd" /><path
             d="m 186.21,145.05 h 16.245 c 0.34218,0 0.62263,0.31839 0.62263,0.70468 0,0.38717 -0.28045,0.70467 -0.62263,0.70467 H 186.21 c -0.34218,0 -0.62263,-0.31573 -0.62263,-0.70467 0,-0.38629 0.28045,-0.70468 0.62263,-0.70468 z"
             id="path5184"
             inkscape:connector-curvature="0"
             style="fill:none;stroke:#000000;stroke-width:0.49901" /><path
             d="m 186.55,146.47 h 15.539 c 0.32719,0 0.59617,0.31662 0.59617,0.70379 0,0.38805 -0.2681,0.70467 -0.59617,0.70467 H 186.55 c -0.32719,0 -0.59529,-0.31662 -0.59529,-0.70467 0,-0.38717 0.2681,-0.70379 0.59529,-0.70379"
             id="path5186"
             inkscape:connector-curvature="0"
             style="fill:#ffff00;fill-rule:evenodd" /><path
             d="m 186.55,146.47 h 15.538 c 0.32719,0 0.59529,0.31662 0.59529,0.70379 0,0.38805 -0.2681,0.70467 -0.59529,0.70467 H 186.55 c -0.32719,0 -0.59529,-0.31662 -0.59529,-0.70467 0,-0.38717 0.2681,-0.70379 0.59529,-0.70379 z"
             id="path5188"
             inkscape:connector-curvature="0"
             style="fill:none;stroke:#000000;stroke-width:0.49901" /><use
             x="0"
             y="0"
             width="600"
             height="400"
             transform="translate(-5.2791,-3.1627)"
             xlink:href="#use4656"
             id="use5190" /><path
             d="m 191.57,135.88 1.2267,0.002 v 0.87136 h 0.89513 v -0.89076 l 1.2567,0.004 v 0.88723 h 0.89778 v -0.89076 h 1.2576 l -0.002,2.0117 c 0,0.31574 -0.25398,0.52035 -0.54854,0.52035 h -4.4113 c -0.29633,0 -0.56972,-0.23724 -0.5706,-0.52652 l -0.003,-1.9879 h 8.8e-4 z"
             id="path5192"
             inkscape:connector-curvature="0"
             style="fill:none;stroke:#000000;stroke-width:0.50024998" /><path
             d="m 196.19,138.57 0.27692,6.4532 -4.3028,-0.0159 0.28485,-6.4506 3.7419,0.015"
             id="path5194"
             inkscape:connector-curvature="0"
             style="fill:#ffff00;fill-rule:evenodd" /><path
             d="m 196.19,138.57 0.27691,6.4514 -4.3028,-0.0159 0.28486,-6.4523 3.741,0.0168"
             id="path5196"
             inkscape:connector-curvature="0"
             style="fill:none;stroke:#000000;stroke-width:0.49897999" /><use
             x="0"
             y="0"
             width="600"
             height="400"
             transform="translate(10.608,0)"
             xlink:href="#path1535"
             id="use5198" /><use
             x="0"
             y="0"
             width="600"
             height="400"
             transform="translate(10.609,0)"
             xlink:href="#path1541"
             id="use5200" /><use
             x="0"
             y="0"
             width="600"
             height="400"
             transform="translate(10.609,-0.010585)"
             xlink:href="#path1537"
             id="use5202" /><path
             d="m 186.3,139.04 1.2003,0.002 v 0.87136 h 0.87662 v -0.89077 l 1.2294,0.004 v 0.88724 h 0.87926 v -0.89077 l 1.2302,0.002 -0.002,2.0117 c 0,0.31398 -0.2487,0.51859 -0.5362,0.51859 h -4.3169 c -0.29014,0 -0.55824,-0.23548 -0.55824,-0.52741 l -0.002,-1.987"
             id="path5204"
             inkscape:connector-curvature="0"
             style="fill:#ffff00;fill-rule:evenodd" /><path
             d="m 186.3,139.04 1.1994,0.003 v 0.87224 h 0.8775 v -0.89253 l 1.2294,0.004 v 0.889 h 0.87926 v -0.89253 l 1.2302,0.002 -0.002,2.0117 c 0,0.31398 -0.2487,0.51859 -0.5362,0.51859 h -4.3169 c -0.28926,0 -0.55824,-0.23548 -0.55913,-0.52564 l -0.003,-1.9888 h 8.8e-4 z"
             id="path5206"
             inkscape:connector-curvature="0"
             style="fill:none;stroke:#000000;stroke-width:0.50016999" /><path
             d="m 190.94,141.56 0.13141,3.4775 -4.1264,0.002 0.11641,-3.4793 h 3.8786"
             id="path5208"
             inkscape:connector-curvature="0"
             style="fill:#ffff00;fill-rule:evenodd" /><path
             d="m 190.94,141.56 0.13141,3.4775 -4.1256,0.002 0.11641,-3.4793 h 3.8786 -8.9e-4 z"
             id="path5210"
             inkscape:connector-curvature="0"
             style="fill:none;stroke:#000000;stroke-width:0.50128001" /><path
             d="m 193.9,140.61 c -0.0265,-0.62706 0.87661,-0.63411 0.86603,0 v 1.5364 H 193.9 V 140.61"
             id="path5212"
             inkscape:connector-curvature="0"
             style="fill-rule:evenodd" /><use
             x="0"
             y="0"
             width="600"
             height="400"
             transform="translate(10.641,0)"
             xlink:href="#path1547"
             id="use5214" /><path
             d="m 188.57,142.84 c -0.003,-0.6059 0.83693,-0.61824 0.82635,0 v 1.1871 H 188.57 V 142.84"
             id="path5216"
             inkscape:connector-curvature="0"
             style="fill-rule:evenodd" /></g><g
           transform="matrix(0.70711,0.70711,-0.70711,0.70711,240.44,-0.49531)"
           id="use5132"><use
             x="0"
             y="0"
             width="600"
             height="400"
             transform="translate(10.608,0)"
             xlink:href="#path1539"
             id="use5328" /><path
             d="m 190.19,154.43 c 0.13493,-5.521 4.0524,-6.828 4.0806,-6.8474 0.0282,-0.0185 4.2314,1.4076 4.2173,6.8986 l -8.2978,-0.0512"
             id="path5330"
             inkscape:connector-curvature="0"
             style="fill:#ffff00;fill-rule:evenodd" /><path
             d="m 186.81,147.68 -0.68172,6.3465 4.1406,0.009 c 0.0397,-5.2493 3.9748,-6.1225 4.07,-6.1031 0.0891,-0.005 3.9889,1.1589 4.0929,6.1031 h 4.1511 l -0.7505,-6.3932 -15.022,0.0379"
             id="path5332"
             inkscape:connector-curvature="0"
             style="fill:#ffff00;fill-rule:evenodd" /><path
             d="m 186.81,147.69 -0.68172,6.3447 4.1406,0.009 c 0.0397,-5.2493 3.9739,-6.1225 4.0691,-6.1031 0.0891,-0.005 3.9889,1.1606 4.0929,6.1031 h 4.1511 l -0.74962,-6.3932 -15.022,0.0379 v 0.002 z"
             id="path5334"
             inkscape:connector-curvature="0"
             style="fill:none;stroke:#000000;stroke-width:0.49936" /><path
             d="m 185.85,154.06 h 16.946 c 0.35629,0 0.6482,0.35277 0.6482,0.78404 0,0.42863 -0.29103,0.78141 -0.6482,0.78141 H 185.85 c -0.35718,0 -0.64909,-0.35102 -0.64909,-0.78141 0,-0.43127 0.29191,-0.78404 0.64909,-0.78404"
             id="path5336"
             inkscape:connector-curvature="0"
             style="fill:#ffff00;fill-rule:evenodd" /><path
             d="m 185.85,154.06 h 16.946 c 0.35717,0 0.64908,0.35277 0.64908,0.78404 0,0.43039 -0.29191,0.78141 -0.64908,0.78141 H 185.85 c -0.35717,0 -0.64908,-0.35102 -0.64908,-0.78141 0,-0.43127 0.29191,-0.78404 0.64908,-0.78404 z"
             id="path5338"
             inkscape:connector-curvature="0"
             style="fill:none;stroke:#000000;stroke-width:0.49943" /><path
             d="m 192.01,154.03 c 0.0185,-3.3126 2.2621,-4.2501 2.2736,-4.2483 8.8e-4,0 2.3415,0.96661 2.36,4.2483 h -4.6335"
             id="path5340"
             inkscape:connector-curvature="0"
             style="fill:#ffff00;fill-rule:evenodd" /><path
             d="m 192.01,154.03 c 0.0185,-3.3126 2.2621,-4.2501 2.2736,-4.2483 8.8e-4,0 2.3423,0.96661 2.3609,4.2483 h -4.6344"
             id="path5342"
             inkscape:connector-curvature="0"
             style="fill:none;stroke:#000000;stroke-width:0.49702999" /><path
             d="m 186.21,145.06 h 16.245 c 0.34218,0 0.62263,0.31662 0.62263,0.70467 0,0.38541 -0.28045,0.70468 -0.62263,0.70468 H 186.21 c -0.34218,0 -0.62263,-0.3175 -0.62263,-0.70468 0,-0.38805 0.28045,-0.70467 0.62263,-0.70467"
             id="path5344"
             inkscape:connector-curvature="0"
             style="fill:#ffff00;fill-rule:evenodd" /><path
             d="m 186.21,145.05 h 16.245 c 0.34218,0 0.62263,0.31839 0.62263,0.70468 0,0.38717 -0.28045,0.70467 -0.62263,0.70467 H 186.21 c -0.34218,0 -0.62263,-0.31573 -0.62263,-0.70467 0,-0.38629 0.28045,-0.70468 0.62263,-0.70468 z"
             id="path5346"
             inkscape:connector-curvature="0"
             style="fill:none;stroke:#000000;stroke-width:0.49901" /><path
             d="m 186.55,146.47 h 15.539 c 0.32719,0 0.59617,0.31662 0.59617,0.70379 0,0.38805 -0.2681,0.70467 -0.59617,0.70467 H 186.55 c -0.32719,0 -0.59529,-0.31662 -0.59529,-0.70467 0,-0.38717 0.2681,-0.70379 0.59529,-0.70379"
             id="path5348"
             inkscape:connector-curvature="0"
             style="fill:#ffff00;fill-rule:evenodd" /><path
             d="m 186.55,146.47 h 15.538 c 0.32719,0 0.59529,0.31662 0.59529,0.70379 0,0.38805 -0.2681,0.70467 -0.59529,0.70467 H 186.55 c -0.32719,0 -0.59529,-0.31662 -0.59529,-0.70467 0,-0.38717 0.2681,-0.70379 0.59529,-0.70379 z"
             id="path5350"
             inkscape:connector-curvature="0"
             style="fill:none;stroke:#000000;stroke-width:0.49901" /><use
             x="0"
             y="0"
             width="600"
             height="400"
             transform="translate(-5.2791,-3.1627)"
             xlink:href="#use4656"
             id="use5352" /><path
             d="m 191.57,135.88 1.2267,0.002 v 0.87136 h 0.89513 v -0.89076 l 1.2567,0.004 v 0.88723 h 0.89778 v -0.89076 h 1.2576 l -0.002,2.0117 c 0,0.31574 -0.25398,0.52035 -0.54854,0.52035 h -4.4113 c -0.29633,0 -0.56972,-0.23724 -0.5706,-0.52652 l -0.003,-1.9879 h 8.8e-4 z"
             id="path5354"
             inkscape:connector-curvature="0"
             style="fill:none;stroke:#000000;stroke-width:0.50024998" /><path
             d="m 196.19,138.57 0.27692,6.4532 -4.3028,-0.0159 0.28485,-6.4506 3.7419,0.015"
             id="path5356"
             inkscape:connector-curvature="0"
             style="fill:#ffff00;fill-rule:evenodd" /><path
             d="m 196.19,138.57 0.27691,6.4514 -4.3028,-0.0159 0.28486,-6.4523 3.741,0.0168"
             id="path5358"
             inkscape:connector-curvature="0"
             style="fill:none;stroke:#000000;stroke-width:0.49897999" /><use
             x="0"
             y="0"
             width="600"
             height="400"
             transform="translate(10.608,0)"
             xlink:href="#path1535"
             id="use5360" /><use
             x="0"
             y="0"
             width="600"
             height="400"
             transform="translate(10.609,0)"
             xlink:href="#path1541"
             id="use5362" /><use
             x="0"
             y="0"
             width="600"
             height="400"
             transform="translate(10.609,-0.010585)"
             xlink:href="#path1537"
             id="use5364" /><path
             d="m 186.3,139.04 1.2003,0.002 v 0.87136 h 0.87662 v -0.89077 l 1.2294,0.004 v 0.88724 h 0.87926 v -0.89077 l 1.2302,0.002 -0.002,2.0117 c 0,0.31398 -0.2487,0.51859 -0.5362,0.51859 h -4.3169 c -0.29014,0 -0.55824,-0.23548 -0.55824,-0.52741 l -0.002,-1.987"
             id="path5366"
             inkscape:connector-curvature="0"
             style="fill:#ffff00;fill-rule:evenodd" /><path
             d="m 186.3,139.04 1.1994,0.003 v 0.87224 h 0.8775 v -0.89253 l 1.2294,0.004 v 0.889 h 0.87926 v -0.89253 l 1.2302,0.002 -0.002,2.0117 c 0,0.31398 -0.2487,0.51859 -0.5362,0.51859 h -4.3169 c -0.28926,0 -0.55824,-0.23548 -0.55913,-0.52564 l -0.003,-1.9888 h 8.8e-4 z"
             id="path5368"
             inkscape:connector-curvature="0"
             style="fill:none;stroke:#000000;stroke-width:0.50016999" /><path
             d="m 190.94,141.56 0.13141,3.4775 -4.1264,0.002 0.11641,-3.4793 h 3.8786"
             id="path5370"
             inkscape:connector-curvature="0"
             style="fill:#ffff00;fill-rule:evenodd" /><path
             d="m 190.94,141.56 0.13141,3.4775 -4.1256,0.002 0.11641,-3.4793 h 3.8786 -8.9e-4 z"
             id="path5372"
             inkscape:connector-curvature="0"
             style="fill:none;stroke:#000000;stroke-width:0.50128001" /><path
             d="m 193.9,140.61 c -0.0265,-0.62706 0.87661,-0.63411 0.86603,0 v 1.5364 H 193.9 V 140.61"
             id="path5374"
             inkscape:connector-curvature="0"
             style="fill-rule:evenodd" /><use
             x="0"
             y="0"
             width="600"
             height="400"
             transform="translate(10.641,0)"
             xlink:href="#path1547"
             id="use5376" /><path
             d="m 188.57,142.84 c -0.003,-0.6059 0.83693,-0.61824 0.82635,0 v 1.1871 H 188.57 V 142.84"
             id="path5378"
             inkscape:connector-curvature="0"
             style="fill-rule:evenodd" /></g><g
           transform="translate(90.85,46.321)"
           id="use5100"><use
             x="0"
             y="0"
             width="600"
             height="400"
             transform="translate(10.608,0)"
             xlink:href="#path1539"
             id="use5220" /><path
             d="m 190.19,154.43 c 0.13493,-5.521 4.0524,-6.828 4.0806,-6.8474 0.0282,-0.0185 4.2314,1.4076 4.2173,6.8986 l -8.2978,-0.0512"
             id="path5222"
             inkscape:connector-curvature="0"
             style="fill:#ffff00;fill-rule:evenodd" /><path
             d="m 186.81,147.68 -0.68172,6.3465 4.1406,0.009 c 0.0397,-5.2493 3.9748,-6.1225 4.07,-6.1031 0.0891,-0.005 3.9889,1.1589 4.0929,6.1031 h 4.1511 l -0.7505,-6.3932 -15.022,0.0379"
             id="path5224"
             inkscape:connector-curvature="0"
             style="fill:#ffff00;fill-rule:evenodd" /><path
             d="m 186.81,147.69 -0.68172,6.3447 4.1406,0.009 c 0.0397,-5.2493 3.9739,-6.1225 4.0691,-6.1031 0.0891,-0.005 3.9889,1.1606 4.0929,6.1031 h 4.1511 l -0.74962,-6.3932 -15.022,0.0379 v 0.002 z"
             id="path5226"
             inkscape:connector-curvature="0"
             style="fill:none;stroke:#000000;stroke-width:0.49936" /><path
             d="m 185.85,154.06 h 16.946 c 0.35629,0 0.6482,0.35277 0.6482,0.78404 0,0.42863 -0.29103,0.78141 -0.6482,0.78141 H 185.85 c -0.35718,0 -0.64909,-0.35102 -0.64909,-0.78141 0,-0.43127 0.29191,-0.78404 0.64909,-0.78404"
             id="path5228"
             inkscape:connector-curvature="0"
             style="fill:#ffff00;fill-rule:evenodd" /><path
             d="m 185.85,154.06 h 16.946 c 0.35717,0 0.64908,0.35277 0.64908,0.78404 0,0.43039 -0.29191,0.78141 -0.64908,0.78141 H 185.85 c -0.35717,0 -0.64908,-0.35102 -0.64908,-0.78141 0,-0.43127 0.29191,-0.78404 0.64908,-0.78404 z"
             id="path5230"
             inkscape:connector-curvature="0"
             style="fill:none;stroke:#000000;stroke-width:0.49943" /><path
             d="m 192.01,154.03 c 0.0185,-3.3126 2.2621,-4.2501 2.2736,-4.2483 8.8e-4,0 2.3415,0.96661 2.36,4.2483 h -4.6335"
             id="path5232"
             inkscape:connector-curvature="0"
             style="fill:#ffff00;fill-rule:evenodd" /><path
             d="m 192.01,154.03 c 0.0185,-3.3126 2.2621,-4.2501 2.2736,-4.2483 8.8e-4,0 2.3423,0.96661 2.3609,4.2483 h -4.6344"
             id="path5234"
             inkscape:connector-curvature="0"
             style="fill:none;stroke:#000000;stroke-width:0.49702999" /><path
             d="m 186.21,145.06 h 16.245 c 0.34218,0 0.62263,0.31662 0.62263,0.70467 0,0.38541 -0.28045,0.70468 -0.62263,0.70468 H 186.21 c -0.34218,0 -0.62263,-0.3175 -0.62263,-0.70468 0,-0.38805 0.28045,-0.70467 0.62263,-0.70467"
             id="path5236"
             inkscape:connector-curvature="0"
             style="fill:#ffff00;fill-rule:evenodd" /><path
             d="m 186.21,145.05 h 16.245 c 0.34218,0 0.62263,0.31839 0.62263,0.70468 0,0.38717 -0.28045,0.70467 -0.62263,0.70467 H 186.21 c -0.34218,0 -0.62263,-0.31573 -0.62263,-0.70467 0,-0.38629 0.28045,-0.70468 0.62263,-0.70468 z"
             id="path5238"
             inkscape:connector-curvature="0"
             style="fill:none;stroke:#000000;stroke-width:0.49901" /><path
             d="m 186.55,146.47 h 15.539 c 0.32719,0 0.59617,0.31662 0.59617,0.70379 0,0.38805 -0.2681,0.70467 -0.59617,0.70467 H 186.55 c -0.32719,0 -0.59529,-0.31662 -0.59529,-0.70467 0,-0.38717 0.2681,-0.70379 0.59529,-0.70379"
             id="path5240"
             inkscape:connector-curvature="0"
             style="fill:#ffff00;fill-rule:evenodd" /><path
             d="m 186.55,146.47 h 15.538 c 0.32719,0 0.59529,0.31662 0.59529,0.70379 0,0.38805 -0.2681,0.70467 -0.59529,0.70467 H 186.55 c -0.32719,0 -0.59529,-0.31662 -0.59529,-0.70467 0,-0.38717 0.2681,-0.70379 0.59529,-0.70379 z"
             id="path5242"
             inkscape:connector-curvature="0"
             style="fill:none;stroke:#000000;stroke-width:0.49901" /><use
             x="0"
             y="0"
             width="600"
             height="400"
             transform="translate(-5.2791,-3.1627)"
             xlink:href="#use4656"
             id="use5244" /><path
             d="m 191.57,135.88 1.2267,0.002 v 0.87136 h 0.89513 v -0.89076 l 1.2567,0.004 v 0.88723 h 0.89778 v -0.89076 h 1.2576 l -0.002,2.0117 c 0,0.31574 -0.25398,0.52035 -0.54854,0.52035 h -4.4113 c -0.29633,0 -0.56972,-0.23724 -0.5706,-0.52652 l -0.003,-1.9879 h 8.8e-4 z"
             id="path5246"
             inkscape:connector-curvature="0"
             style="fill:none;stroke:#000000;stroke-width:0.50024998" /><path
             d="m 196.19,138.57 0.27692,6.4532 -4.3028,-0.0159 0.28485,-6.4506 3.7419,0.015"
             id="path5248"
             inkscape:connector-curvature="0"
             style="fill:#ffff00;fill-rule:evenodd" /><path
             d="m 196.19,138.57 0.27691,6.4514 -4.3028,-0.0159 0.28486,-6.4523 3.741,0.0168"
             id="path5250"
             inkscape:connector-curvature="0"
             style="fill:none;stroke:#000000;stroke-width:0.49897999" /><use
             x="0"
             y="0"
             width="600"
             height="400"
             transform="translate(10.608,0)"
             xlink:href="#path1535"
             id="use5252" /><use
             x="0"
             y="0"
             width="600"
             height="400"
             transform="translate(10.609,0)"
             xlink:href="#path1541"
             id="use5254" /><use
             x="0"
             y="0"
             width="600"
             height="400"
             transform="translate(10.609,-0.010585)"
             xlink:href="#path1537"
             id="use5256" /><path
             d="m 186.3,139.04 1.2003,0.002 v 0.87136 h 0.87662 v -0.89077 l 1.2294,0.004 v 0.88724 h 0.87926 v -0.89077 l 1.2302,0.002 -0.002,2.0117 c 0,0.31398 -0.2487,0.51859 -0.5362,0.51859 h -4.3169 c -0.29014,0 -0.55824,-0.23548 -0.55824,-0.52741 l -0.002,-1.987"
             id="path5258"
             inkscape:connector-curvature="0"
             style="fill:#ffff00;fill-rule:evenodd" /><path
             d="m 186.3,139.04 1.1994,0.003 v 0.87224 h 0.8775 v -0.89253 l 1.2294,0.004 v 0.889 h 0.87926 v -0.89253 l 1.2302,0.002 -0.002,2.0117 c 0,0.31398 -0.2487,0.51859 -0.5362,0.51859 h -4.3169 c -0.28926,0 -0.55824,-0.23548 -0.55913,-0.52564 l -0.003,-1.9888 h 8.8e-4 z"
             id="path5260"
             inkscape:connector-curvature="0"
             style="fill:none;stroke:#000000;stroke-width:0.50016999" /><path
             d="m 190.94,141.56 0.13141,3.4775 -4.1264,0.002 0.11641,-3.4793 h 3.8786"
             id="path5262"
             inkscape:connector-curvature="0"
             style="fill:#ffff00;fill-rule:evenodd" /><path
             d="m 190.94,141.56 0.13141,3.4775 -4.1256,0.002 0.11641,-3.4793 h 3.8786 -8.9e-4 z"
             id="path5264"
             inkscape:connector-curvature="0"
             style="fill:none;stroke:#000000;stroke-width:0.50128001" /><path
             d="m 193.9,140.61 c -0.0265,-0.62706 0.87661,-0.63411 0.86603,0 v 1.5364 H 193.9 V 140.61"
             id="path5266"
             inkscape:connector-curvature="0"
             style="fill-rule:evenodd" /><use
             x="0"
             y="0"
             width="600"
             height="400"
             transform="translate(10.641,0)"
             xlink:href="#path1547"
             id="use5268" /><path
             d="m 188.57,142.84 c -0.003,-0.6059 0.83693,-0.61824 0.82635,0 v 1.1871 H 188.57 V 142.84"
             id="path5270"
             inkscape:connector-curvature="0"
             style="fill-rule:evenodd" /></g><use
           x="0"
           y="0"
           width="600"
           height="400"
           transform="matrix(0.70711,-0.70711,0.70711,0.70711,-27.965,266.76)"
           xlink:href="#path1539"
           id="use5274" /><path
           d="m 208.22,248.98 c -3.8085,-3.9993 -1.9627,-7.6936 -1.9565,-7.7273 0.007,-0.0331 3.9874,-1.9967 7.8601,1.896 L 208.22,248.98"
           id="path5276"
           inkscape:connector-curvature="0"
           style="fill:#ffff00;fill-rule:evenodd" /><path
           d="m 201.06,246.59 4.0056,4.9697 2.934,-2.9216 c -3.6838,-3.7399 -1.5187,-7.1398 -1.4376,-7.1934 0.0592,-0.0667 3.64,-2.0011 7.2096,1.4214 l 2.9353,-2.9353 -5.0514,-3.99 -10.595,10.649"
           id="path5278"
           inkscape:connector-curvature="0"
           style="fill:#ffff00;fill-rule:evenodd" /><path
           d="m 201.06,246.6 4.0043,4.9684 2.934,-2.9216 c -3.6838,-3.7399 -1.5193,-7.1392 -1.4382,-7.1928 0.0592,-0.0667 3.6412,-1.9999 7.2096,1.4214 l 2.9353,-2.9353 -5.0508,-3.9906 -10.596,10.649 0.001,0.001 z"
           id="path5280"
           inkscape:connector-curvature="0"
           style="fill:none;stroke:#000000;stroke-width:0.49936" /><path
           d="m 204.89,251.78 11.982,-11.983 c 0.25194,-0.25193 0.70779,-0.2089 1.0128,0.0961 0.30309,0.30308 0.34675,0.75832 0.0942,1.0109 l -11.982,11.983 c -0.25257,0.25256 -0.70719,0.21076 -1.0115,-0.0936 -0.30495,-0.30495 -0.34799,-0.76081 -0.0954,-1.0134"
           id="path5282"
           inkscape:connector-curvature="0"
           style="fill:#ffff00;fill-rule:evenodd" /><path
           d="m 204.89,251.78 11.983,-11.983 c 0.25256,-0.25255 0.70841,-0.20952 1.0134,0.0954 0.30433,0.30433 0.34613,0.75895 0.0936,1.0115 l -11.983,11.983 c -0.25256,0.25255 -0.70718,0.21076 -1.0115,-0.0936 -0.30496,-0.30495 -0.34799,-0.76081 -0.0954,-1.0134 z"
           id="path5284"
           inkscape:connector-curvature="0"
           style="fill:none;stroke:#000000;stroke-width:0.49943" /><path
           d="m 209.22,247.4 c -2.3293,-2.3554 -1.4057,-4.6048 -1.3964,-4.6117 6.2e-4,-6.2e-4 2.3392,-0.97216 4.6728,1.3353 L 209.22,247.4"
           id="path5286"
           inkscape:connector-curvature="0"
           style="fill:#ffff00;fill-rule:evenodd" /><path
           d="m 209.22,247.4 c -2.3293,-2.3554 -1.4057,-4.6048 -1.3964,-4.6117 6.2e-4,-6.2e-4 2.3398,-0.97279 4.6734,1.3346 l -3.277,3.277"
           id="path5288"
           inkscape:connector-curvature="0"
           style="fill:none;stroke:#000000;stroke-width:0.49702999" /><path
           d="m 198.77,245.16 11.487,-11.487 c 0.24195,-0.24196 0.66415,-0.21638 0.93854,0.058 0.27252,0.27253 0.29997,0.69659 0.058,0.93855 l -11.487,11.487 c -0.24196,0.24196 -0.66477,0.21576 -0.93855,-0.058 -0.27439,-0.27439 -0.29997,-0.69658 -0.058,-0.93854"
           id="path5290"
           inkscape:connector-curvature="0"
           style="fill:#ffff00;fill-rule:evenodd" /><path
           d="m 198.77,245.16 11.487,-11.487 c 0.24196,-0.24196 0.66541,-0.21513 0.93855,0.058 0.27377,0.27377 0.29997,0.69658 0.058,0.93854 l -11.487,11.487 c -0.24196,0.24195 -0.66352,0.21701 -0.93855,-0.058 -0.27314,-0.27315 -0.29997,-0.6966 -0.058,-0.93855 z"
           id="path5292"
           inkscape:connector-curvature="0"
           style="fill:none;stroke:#000000;stroke-width:0.49901" /><path
           d="m 200.01,245.91 10.988,-10.988 c 0.23136,-0.23136 0.64544,-0.19767 0.91921,0.0761 0.27439,0.27439 0.3087,0.68785 0.0767,0.91983 l -10.988,10.988 c -0.23136,0.23136 -0.64482,0.19705 -0.91921,-0.0773 -0.27377,-0.27377 -0.30808,-0.68723 -0.0767,-0.91859"
           id="path5294"
           inkscape:connector-curvature="0"
           style="fill:#ffff00;fill-rule:evenodd" /><path
           d="m 200.01,245.91 10.987,-10.987 c 0.23135,-0.23136 0.64481,-0.19705 0.91858,0.0767 0.2744,0.27439 0.30871,0.68785 0.0773,0.91921 l -10.987,10.987 c -0.23136,0.23136 -0.64482,0.19705 -0.91921,-0.0773 -0.27377,-0.27377 -0.30808,-0.68723 -0.0767,-0.91859 z"
           id="path5296"
           inkscape:connector-curvature="0"
           style="fill:none;stroke:#000000;stroke-width:0.49901" /><use
           x="0"
           y="0"
           width="600"
           height="400"
           transform="matrix(0.70711,-0.70711,0.70711,0.70711,-41.435,275.76)"
           xlink:href="#use4656"
           id="use5298" /><path
           d="m 196.08,234.88 0.86868,-0.86618 0.61614,0.61614 0.63295,-0.63295 -0.62986,-0.62986 0.89113,-0.88614 0.62737,0.62736 0.63482,-0.63482 -0.62986,-0.62986 0.88926,-0.88926 1.4212,1.4237 c 0.22326,0.22327 0.18835,0.54754 -0.0199,0.75582 l -3.1193,3.1193 c -0.20953,0.20953 -0.5706,0.2351 -0.77578,0.0312 l -1.4075,-1.4038 6.2e-4,-6.2e-4 z"
           id="path5300"
           inkscape:connector-curvature="0"
           style="fill:none;stroke:#000000;stroke-width:0.50024998" /><path
           d="m 201.25,233.51 4.7589,4.3673 -3.0538,3.0313 -4.3598,-4.7626 2.6565,-2.6353"
           id="path5302"
           inkscape:connector-curvature="0"
           style="fill:#ffff00;fill-rule:evenodd" /><path
           d="m 201.25,233.52 4.7576,4.366 -3.0538,3.0313 -4.361,-4.7639 2.6572,-2.6335"
           id="path5304"
           inkscape:connector-curvature="0"
           style="fill:none;stroke:#000000;stroke-width:0.49897999" /><use
           x="0"
           y="0"
           width="600"
           height="400"
           transform="matrix(0.70711,-0.70711,0.70711,0.70711,-27.965,266.76)"
           xlink:href="#path1535"
           id="use5306" /><use
           x="0"
           y="0"
           width="600"
           height="400"
           transform="matrix(0.70711,-0.70711,0.70711,0.70711,-27.965,266.76)"
           xlink:href="#path1541"
           id="use5308" /><use
           x="0"
           y="0"
           width="600"
           height="400"
           transform="matrix(0.70711,-0.70711,0.70711,0.70711,-27.972,266.75)"
           xlink:href="#path1537"
           id="use5310" /><path
           d="m 194.59,240.84 0.84997,-0.84747 0.61615,0.61614 0.61986,-0.61986 -0.62987,-0.62987 0.8718,-0.86681 0.62737,0.62738 0.62173,-0.62174 -0.62987,-0.62986 0.87117,-0.86867 1.4212,1.4237 c 0.22202,0.22201 0.19084,0.54255 -0.0125,0.74585 l -3.0525,3.0525 c -0.20516,0.20516 -0.56124,0.22822 -0.76767,0.0218 l -1.4063,-1.4038"
           id="path5312"
           inkscape:connector-curvature="0"
           style="fill:#ffff00;fill-rule:evenodd" /><path
           d="m 194.59,240.84 0.84997,-0.84623 0.61677,0.61677 0.62048,-0.62049 -0.63111,-0.63111 0.8718,-0.86681 0.62862,0.62862 0.62173,-0.62173 -0.63112,-0.63111 0.87117,-0.86867 1.4212,1.4237 c 0.22202,0.22201 0.19084,0.54255 -0.0125,0.74585 l -3.0525,3.0525 c -0.20454,0.20453 -0.56124,0.22822 -0.76705,0.0237 l -1.4082,-1.4044 6.2e-4,-6.2e-4 z"
           id="path5314"
           inkscape:connector-curvature="0"
           style="fill:none;stroke:#000000;stroke-width:0.50016999" /><path
           d="m 199.65,239.34 2.5519,2.366 -2.9166,2.9191 -2.3779,-2.5425 2.7426,-2.7426"
           id="path5316"
           inkscape:connector-curvature="0"
           style="fill:#ffff00;fill-rule:evenodd" /><path
           d="m 199.65,239.34 2.5519,2.366 -2.916,2.9184 -2.3779,-2.5425 2.7426,-2.7426 -6.3e-4,6.3e-4 z"
           id="path5318"
           inkscape:connector-curvature="0"
           style="fill:none;stroke:#000000;stroke-width:0.50128001" /><path
           d="m 201.07,236.58 c -0.46211,-0.42469 0.17147,-1.0682 0.61237,-0.61237 l 1.0864,1.0864 -0.61238,0.61237 -1.0864,-1.0864"
           id="path5320"
           inkscape:connector-curvature="0"
           style="fill-rule:evenodd" /><use
           x="0"
           y="0"
           width="600"
           height="400"
           transform="matrix(0.70711,-0.70711,0.70711,0.70711,-27.942,266.74)"
           xlink:href="#path1547"
           id="use5322" /><path
           d="m 198.88,241.93 c -0.4303,-0.42657 0.15464,-1.029 0.58432,-0.58432 l 0.8394,0.83941 -0.58431,0.58431 L 198.88,241.93"
           id="path5324"
           inkscape:connector-curvature="0"
           style="fill-rule:evenodd" /><use
           x="0"
           y="0"
           width="600"
           height="400"
           transform="translate(-20.819,25.744)"
           xlink:href="#use5944"
           id="use6358" /><use
           x="0"
           y="0"
           width="600"
           height="400"
           transform="translate(-29.056,25.754)"
           xlink:href="#use5944"
           id="use6360" /><use
           x="0"
           y="0"
           width="600"
           height="400"
           transform="translate(-24.976,21.575)"
           xlink:href="#use5944"
           id="use6356" /><use
           x="0"
           y="0"
           width="600"
           height="400"
           transform="translate(-20.81,17.581)"
           xlink:href="#use5944"
           id="use6352" /><path
           d="m 265.13,202.46 c -0.8184,0 -1.486,0.66676 -1.486,1.4852 0,0.81669 0.66761,1.4852 1.486,1.4852 0.81841,0 1.486,-0.66675 1.486,-1.4852 0,-0.81844 -0.66761,-1.4852 -1.486,-1.4852"
           id="use5944"
           inkscape:connector-curvature="0"
           style="fill:#ffffff" /><use
           x="0"
           y="0"
           width="600"
           height="400"
           transform="translate(-8.1127,0.012345)"
           xlink:href="#use5944"
           id="use5946" /><use
           x="0"
           y="0"
           width="600"
           height="400"
           transform="translate(3.9554,-4.18)"
           xlink:href="#use5946"
           id="use5948" /><use
           x="0"
           y="0"
           width="600"
           height="400"
           transform="translate(4.1661,-3.9948)"
           xlink:href="#use5948"
           id="use5950" /><use
           x="0"
           y="0"
           width="600"
           height="400"
           transform="translate(-8.1391,-0.00705)"
           xlink:href="#use5950"
           id="use5952" /><use
           x="0"
           y="0"
           width="600"
           height="400"
           transform="translate(-12.617,8.1298)"
           xlink:href="#use5952"
           id="use5954" /><use
           x="0"
           y="0"
           width="600"
           height="400"
           transform="translate(-8.3089,0.010585)"
           xlink:href="#use5954"
           id="use5956" /><use
           x="0"
           y="0"
           width="600"
           height="400"
           transform="translate(4.1516,-4.1809)"
           xlink:href="#use5956"
           id="use5958" /><use
           x="0"
           y="0"
           width="600"
           height="400"
           transform="translate(4.167,-3.993)"
           xlink:href="#use5958"
           id="use5960" /><use
           x="0"
           y="0"
           width="600"
           height="400"
           transform="translate(-8.3186,-0.007495)"
           xlink:href="#use5960"
           id="use5962" /><use
           x="0"
           y="0"
           width="600"
           height="400"
           transform="translate(-12.489,8.2228)"
           xlink:href="#use5962"
           id="use5964" /><use
           x="0"
           y="0"
           width="600"
           height="400"
           transform="translate(-8.1127,0.010145)"
           xlink:href="#use5964"
           id="use5966" /><use
           x="0"
           y="0"
           width="600"
           height="400"
           transform="translate(3.9554,-4.18)"
           xlink:href="#use5966"
           id="use5968" /><use
           x="0"
           y="0"
           width="600"
           height="400"
           transform="translate(4.167,-3.9934)"
           xlink:href="#use5968"
           id="use5970" /><use
           x="0"
           y="0"
           width="600"
           height="400"
           transform="translate(-29.056,17.574)"
           xlink:href="#use5944"
           id="use6354" /><path
           d="m 215.45,194.3 c -0.81839,0 -1.486,0.66675 -1.486,1.4852 0,0.81668 0.66762,1.4852 1.486,1.4852 0.81841,0 1.486,-0.66675 1.486,-1.4852 0,-0.81845 -0.66761,-1.4852 -1.486,-1.4852"
           id="use6320"
           inkscape:connector-curvature="0"
           style="fill:#ffff00" /><use
           x="0"
           y="0"
           width="600"
           height="400"
           transform="translate(-29.056,-34.226)"
           xlink:href="#use5944"
           id="use6346" /><use
           x="0"
           y="0"
           width="600"
           height="400"
           transform="translate(-20.917,-34.226)"
           xlink:href="#use5944"
           id="use6332" /><use
           x="0"
           y="0"
           width="600"
           height="400"
           transform="translate(-25.084,-30.225)"
           xlink:href="#use5944"
           id="use6334" /><use
           x="0"
           y="0"
           width="600"
           height="400"
           transform="translate(-20.925,-26.056)"
           xlink:href="#use5944"
           id="use6336" /><use
           x="0"
           y="0"
           width="600"
           height="400"
           transform="translate(-29.056,-26.045)"
           xlink:href="#use5944"
           id="use6338" /><use
           x="0"
           y="0"
           width="600"
           height="400"
           transform="translate(-49.674,-8.158)"
           xlink:href="#use5944"
           id="use6340" /></g></g></g><g
     inkscape:groupmode="layer"
     id="layer2"
     inkscape:label="cc"
     style="display:inline"
     sodipodi:insensitive="true"><path
       style="fill:#ffffff"
       inkscape:connector-curvature="0"
       d="m 106.64917,198.79396 c 0,1.797 -0.439,3.243 -2.225,3.288 l 0,0.027 c -0.965,0.078 0.228,0.117 -0.543,0.117 -6.054,0 -10.334,-1.33 -12.839,-3.992 -2.506,-2.66 -3.76,-7.172 -3.76,-13.533 l 0,-21.684 c 0,-3.433 -0.503,-5.986 -1.504,-7.664 -0.995,-1.662 -2.732,-2.857 -5.205,-3.594 -1.254,-0.496 -2.146,-1.705 -2.146,-3.135 0,-1.41 0.864,-2.613 2.088,-3.126 l 0,-0.006 c 4.513,-1.194 6.768,-4.742 6.768,-10.643 l 0,-23.129 c 0,-5.744 1.291,-9.891 3.874,-12.436 2.584,-2.544 18.624,-3.816003 12.725,-3.816003 l 0.543,0 0,0.004 c 1.849,0.013 2.346,1.511003 2.346,3.361003 0,1.852 -0.497,2.32 -2.346,2.331 l 0,0.04 c -4.436,0.078 -7.423,0.83 -8.965,2.256 -1.542,1.426 -2.312,4.185 -2.312,8.27 l 0,23.582 c 0,2.66 -0.35,5.109 -1.044,7.344 -0.807,2.508 -2.871,4.591 -6.187,6.247 2.66,1.427 4.53,3.161 5.611,5.204 1.078,2.045 1.619,4.938 1.619,8.676 l 0,22.716 c 0,4.396 0.73,7.315 2.197,8.764 1.465,1.445 4.491,2.188 9.08,2.227 l 0,0.047 c 1.785,0.043 2.225,0.459 2.225,2.257 z m 229.616,0 c 0,1.797 1.439,3.243 3.225,3.288 l 0,0.027 c 0.965,0.078 -0.229,0.117 0.543,0.117 6.057,0 10.334,-1.33 12.84,-3.992 2.51,-2.66 3.762,-7.172 3.762,-13.533 l 0,-21.684 c 0,-3.433 0.502,-5.986 1.504,-7.664 0.996,-1.662 2.73,-2.857 5.205,-3.594 1.256,-0.496 2.145,-1.705 2.145,-3.135 0,-1.41 -2.088,-1.79608 -2.088,-3.126 l 0,-0.006 c -4.512,-1.194 -6.768,-4.742 -6.768,-10.643 l 0,-23.129 c 0,-5.744 -1.291,-9.891 -3.875,-12.436 -2.582,-2.544 -6.824,-3.816003 -12.725,-3.816003 l -0.543,0 0,0.004 c -1.848,0.013 -3.346,1.511003 -3.346,3.361003 0,1.852 3.346,0.482967 3.346,2.331 l 0,0.04 c 4.436,0.078 7.424,0.83 8.965,2.256 1.543,1.426 2.314,4.186 2.314,8.271 l 0,23.582 c 0,2.66 0.348,5.109 1.041,7.344 0.809,2.508 2.873,4.591 6.188,6.247 -2.66,1.427 -4.529,3.161 -5.611,5.204 -1.076,2.045 -1.617,4.938 -1.617,8.676 l 0,22.716 c 0,4.396 -0.732,7.315 -2.197,8.764 -1.467,1.445 -4.492,2.188 -9.082,2.227 l 0,0.047 c -1.787,0.042 -3.226,0.458 -3.226,2.256 z"
       id="path5"
       sodipodi:nodetypes="cccscssccsccsscsccsccssscccssccccccccscssccsccsscsccscccsscccssccc" /></g><g
     inkscape:groupmode="layer"
     id="layer4"
     inkscape:label="cc text"
     style="display:none"
     sodipodi:insensitive="true"><text
       xml:space="preserve"
       style="font-size:72px;font-style:normal;font-weight:normal;line-height:125%;letter-spacing:0px;word-spacing:0px;fill:#ffffff;fill-opacity:1;stroke:none;display:inline;font-family:Sans"
       x="221.49579"
       y="127.80998"
       id="text4487-6"
       sodipodi:linespacing="125%"><tspan
         sodipodi:role="line"
         id="tspan4489-6"
         x="221.49579"
         y="127.80998"
         style="font-size:48px;text-align:center;text-anchor:middle;fill:#ffffff">codeclub</tspan><tspan
         sodipodi:role="line"
         x="221.49579"
         y="187.80998"
         id="tspan4491-6"
         style="font-size:48px;text-align:center;text-anchor:middle;fill:#ffffff">portugal</tspan></text>
</g><g
     style="display:inline"
     inkscape:label="path"
     id="g4824"
     inkscape:groupmode="layer"><g
       style="font-size:72px;font-style:normal;font-weight:normal;line-height:125%;letter-spacing:0px;word-spacing:0px;fill:#ffffff;fill-opacity:1;stroke:none;display:inline;font-family:Sans"
       id="text4826"><path
         d="m 136.67548,102.56779 0,4.03125 c -1.21878,-0.67185 -2.44534,-1.17185 -3.67969,-1.5 -1.21877,-0.34372 -2.45314,-0.5156 -3.70313,-0.51562 -2.79688,2e-5 -4.96876,0.89065 -6.51562,2.67187 -1.54688,1.76565 -2.32032,4.25002 -2.32031,7.45313 -10e-6,3.20313 0.77343,5.69532 2.32031,7.47656 1.54686,1.76563 3.71874,2.64844 6.51562,2.64844 1.24999,0 2.48436,-0.16406 3.70313,-0.49219 1.23435,-0.34374 2.46091,-0.85156 3.67969,-1.52344 l 0,3.98438 c -1.20315,0.5625 -2.45315,0.98437 -3.75,1.26562 -1.28127,0.28125 -2.64846,0.42188 -4.10157,0.42188 -3.95313,0 -7.09375,-1.24219 -9.42187,-3.72656 -2.32813,-2.48437 -3.49219,-5.83593 -3.49219,-10.05469 0,-4.28123 1.17187,-7.64842 3.51563,-10.10156 2.35936,-2.4531 5.58592,-3.67966 9.67968,-3.67969 1.32811,3e-5 2.62499,0.14065 3.89063,0.42187 1.2656,0.26566 2.49216,0.67191 3.67969,1.21875"
         style="font-size:48px;text-align:center;text-anchor:middle;fill:#ffffff"
         id="path4833" /><path
         d="m 154.39423,104.58342 c -2.31252,2e-5 -4.14064,0.90627 -5.48438,2.71875 -1.34376,1.79689 -2.01563,4.26564 -2.01562,7.40625 -1e-5,3.14063 0.66405,5.61719 1.99218,7.42969 1.34374,1.79688 3.17968,2.69531 5.50782,2.69531 2.29685,0 4.11716,-0.90625 5.46093,-2.71875 1.34373,-1.81249 2.01561,-4.28124 2.01563,-7.40625 -2e-5,-3.10936 -0.6719,-5.57029 -2.01563,-7.38281 -1.34377,-1.82811 -3.16408,-2.74217 -5.46093,-2.74219 m 0,-3.65625 c 3.74998,3e-5 6.69529,1.21878 8.83593,3.65625 2.1406,2.43752 3.21091,5.81252 3.21094,10.125 -3e-5,4.29688 -1.07034,7.67188 -3.21094,10.125 -2.14064,2.4375 -5.08595,3.65625 -8.83593,3.65625 -3.76564,0 -6.71876,-1.21875 -8.85938,-3.65625 -2.125,-2.45312 -3.1875,-5.82812 -3.1875,-10.125 0,-4.31248 1.0625,-7.68748 3.1875,-10.125 2.14062,-2.43747 5.09374,-3.65622 8.85938,-3.65625"
         style="font-size:48px;text-align:center;text-anchor:middle;fill:#ffffff"
         id="path4835" /><path
         d="m 190.83954,105.54436 0,-14.203128 4.3125,0 0,36.468748 -4.3125,0 0,-3.9375 c -0.90627,1.5625 -2.05471,2.72657 -3.44531,3.49219 -1.37502,0.75 -3.03127,1.125 -4.96875,1.125 -3.17189,0 -5.75782,-1.26562 -7.75782,-3.79688 -1.98438,-2.53124 -2.97656,-5.85936 -2.97656,-9.98437 0,-4.12498 0.99218,-7.4531 2.97656,-9.98438 2,-2.53122 4.58593,-3.79684 7.75782,-3.79687 1.93748,3e-5 3.59373,0.38284 4.96875,1.14844 1.3906,0.75002 2.53904,1.90627 3.44531,3.46875 m -14.69531,9.16406 c -1e-5,3.17188 0.64843,5.66407 1.94531,7.47656 1.31249,1.79688 3.10936,2.69532 5.39062,2.69531 2.28124,1e-5 4.07811,-0.89843 5.39063,-2.69531 1.31248,-1.81249 1.96873,-4.30468 1.96875,-7.47656 -2e-5,-3.17186 -0.65627,-5.65623 -1.96875,-7.45313 -1.31252,-1.81247 -3.10939,-2.71872 -5.39063,-2.71875 -2.28126,3e-5 -4.07813,0.90628 -5.39062,2.71875 -1.29688,1.7969 -1.94532,4.28127 -1.94531,7.45313"
         style="font-size:48px;text-align:center;text-anchor:middle;fill:#ffffff"
         id="path4837" /><path
         d="m 226.48798,113.60686 0,2.10937 -19.82813,0 c 0.18749,2.96876 1.07812,5.23438 2.67188,6.79688 1.60936,1.54688 3.84373,2.32031 6.70312,2.32031 1.65623,0 3.25779,-0.20312 4.80469,-0.60938 1.56248,-0.40624 3.10935,-1.01562 4.64062,-1.82812 l 0,4.07812 c -1.5469,0.65626 -3.13283,1.15625 -4.75781,1.5 -1.62502,0.34375 -3.27345,0.51563 -4.94531,0.51563 -4.18751,0 -7.50782,-1.21875 -9.96094,-3.65625 -2.4375,-2.43749 -3.65625,-5.73437 -3.65625,-9.89063 0,-4.29685 1.15625,-7.7031 3.46875,-10.21875 2.32812,-2.53122 5.46093,-3.79684 9.39844,-3.79687 3.53123,3e-5 6.32029,1.14065 8.36719,3.42187 2.06247,2.26565 3.09372,5.35159 3.09375,9.25782 m -4.3125,-1.26563 c -0.0313,-2.35935 -0.69534,-4.24217 -1.99219,-5.64844 -1.28127,-1.40622 -2.98439,-2.10935 -5.10938,-2.10937 -2.40626,2e-5 -4.33595,0.67971 -5.78906,2.03906 -1.43751,1.3594 -2.26563,3.27346 -2.48437,5.74219 l 15.375,-0.0234"
         style="font-size:48px;text-align:center;text-anchor:middle;fill:#ffffff"
         id="path4839" /><path
         d="m 252.45673,102.56779 0,4.03125 c -1.21878,-0.67185 -2.44534,-1.17185 -3.67969,-1.5 -1.21877,-0.34372 -2.45314,-0.5156 -3.70313,-0.51562 -2.79688,2e-5 -4.96876,0.89065 -6.51562,2.67187 -1.54688,1.76565 -2.32032,4.25002 -2.32031,7.45313 -1e-5,3.20313 0.77343,5.69532 2.32031,7.47656 1.54686,1.76563 3.71874,2.64844 6.51562,2.64844 1.24999,0 2.48436,-0.16406 3.70313,-0.49219 1.23435,-0.34374 2.46091,-0.85156 3.67969,-1.52344 l 0,3.98438 c -1.20315,0.5625 -2.45315,0.98437 -3.75,1.26562 -1.28127,0.28125 -2.64846,0.42188 -4.10157,0.42188 -3.95313,0 -7.09375,-1.24219 -9.42187,-3.72656 -2.32813,-2.48437 -3.49219,-5.83593 -3.49219,-10.05469 0,-4.28123 1.17187,-7.64842 3.51563,-10.10156 2.35936,-2.4531 5.58592,-3.67966 9.67968,-3.67969 1.32811,3e-5 2.62499,0.14065 3.89063,0.42187 1.2656,0.26566 2.49216,0.67191 3.67969,1.21875"
         style="font-size:48px;text-align:center;text-anchor:middle;fill:#ffffff"
         id="path4841" /><path
         d="m 260.0036,91.341232 4.3125,0 0,36.468748 -4.3125,0 0,-36.468748"
         style="font-size:48px;text-align:center;text-anchor:middle;fill:#ffffff"
         id="path4843" /><path
         d="m 272.87079,117.45061 0,-15.89063 4.3125,0 0,15.72656 c -10e-6,2.48439 0.48436,4.35157 1.45312,5.60157 0.96874,1.23438 2.42187,1.85156 4.35938,1.85156 2.32811,0 4.16404,-0.74218 5.50781,-2.22656 1.35936,-1.48437 2.03904,-3.50781 2.03906,-6.07032 l 0,-14.88281 4.3125,0 0,26.25 -4.3125,0 0,-4.03125 c -1.04689,1.59375 -2.26564,2.78125 -3.65625,3.5625 -1.37501,0.76563 -2.97657,1.14844 -4.80468,1.14844 -3.01564,0 -5.3047,-0.9375 -6.86719,-2.8125 -1.56251,-1.875 -2.34376,-4.61718 -2.34375,-8.22656"
         style="font-size:48px;text-align:center;text-anchor:middle;fill:#ffffff"
         id="path4845" /><path
         d="m 322.6286,114.70842 c -2e-5,-3.17186 -0.65627,-5.65623 -1.96875,-7.45313 -1.29689,-1.81247 -3.08595,-2.71872 -5.36719,-2.71875 -2.28126,3e-5 -4.07813,0.90628 -5.39062,2.71875 -1.29689,1.7969 -1.94532,4.28127 -1.94531,7.45313 -10e-6,3.17188 0.64842,5.66407 1.94531,7.47656 1.31249,1.79688 3.10936,2.69532 5.39062,2.69531 2.28124,1e-5 4.0703,-0.89843 5.36719,-2.69531 1.31248,-1.81249 1.96873,-4.30468 1.96875,-7.47656 m -14.67187,-9.16406 c 0.90624,-1.56248 2.04686,-2.71873 3.42187,-3.46875 1.39061,-0.7656 3.04686,-1.14841 4.96875,-1.14844 3.18748,3e-5 5.77342,1.26565 7.75781,3.79687 1.99998,2.53128 2.99998,5.8594 3,9.98438 -2e-5,4.12501 -1.00002,7.45313 -3,9.98437 -1.98439,2.53126 -4.57033,3.79688 -7.75781,3.79688 -1.92189,0 -3.57814,-0.375 -4.96875,-1.125 -1.37501,-0.76562 -2.51563,-1.92969 -3.42187,-3.49219 l 0,3.9375 -4.33594,0 0,-36.468748 4.33594,0 0,14.203128"
         style="font-size:48px;text-align:center;text-anchor:middle;fill:#ffffff"
         id="path4847" /><path
         d="m 129.1286,183.87248 0,13.92188 -4.33594,0 0,-36.23438 4.33594,0 0,3.98438 c 0.90624,-1.56248 2.04687,-2.71873 3.42188,-3.46875 1.39061,-0.7656 3.04686,-1.14841 4.96875,-1.14844 3.18748,3e-5 5.77341,1.26565 7.75781,3.79687 1.99997,2.53128 2.99997,5.8594 3,9.98438 -3e-5,4.12501 -1.00003,7.45313 -3,9.98437 -1.9844,2.53126 -4.57033,3.79688 -7.75781,3.79688 -1.92189,0 -3.57814,-0.375 -4.96875,-1.125 -1.37501,-0.76562 -2.51564,-1.92969 -3.42188,-3.49219 m 14.67188,-9.16406 c -3e-5,-3.17186 -0.65628,-5.65623 -1.96875,-7.45313 -1.2969,-1.81247 -3.08596,-2.71872 -5.36719,-2.71875 -2.28127,3e-5 -4.07814,0.90628 -5.39063,2.71875 -1.29688,1.7969 -1.94532,4.28127 -1.94531,7.45313 -1e-5,3.17188 0.64843,5.66407 1.94531,7.47656 1.31249,1.79688 3.10936,2.69532 5.39063,2.69531 2.28123,1e-5 4.07029,-0.89843 5.36719,-2.69531 1.31247,-1.81249 1.96872,-4.30468 1.96875,-7.47656"
         style="font-size:48px;text-align:center;text-anchor:middle;fill:#ffffff"
         id="path4849" /><path
         d="m 165.59735,164.58342 c -2.31251,2e-5 -4.14063,0.90627 -5.48437,2.71875 -1.34376,1.79689 -2.01564,4.26564 -2.01563,7.40625 -1e-5,3.14063 0.66406,5.61719 1.99219,7.42969 1.34374,1.79688 3.17967,2.69531 5.50781,2.69531 2.29686,0 4.11717,-0.90625 5.46094,-2.71875 1.34373,-1.81249 2.0156,-4.28124 2.01562,-7.40625 -2e-5,-3.10936 -0.67189,-5.57029 -2.01562,-7.38281 -1.34377,-1.82811 -3.16408,-2.74217 -5.46094,-2.74219 m 0,-3.65625 c 3.74998,3e-5 6.69529,1.21878 8.83594,3.65625 2.1406,2.43752 3.21091,5.81252 3.21094,10.125 -3e-5,4.29688 -1.07034,7.67188 -3.21094,10.125 -2.14065,2.4375 -5.08596,3.65625 -8.83594,3.65625 -3.76563,0 -6.71876,-1.21875 -8.85937,-3.65625 -2.12501,-2.45312 -3.18751,-5.82812 -3.1875,-10.125 -1e-5,-4.31248 1.06249,-7.68748 3.1875,-10.125 2.14061,-2.43747 5.09374,-3.65622 8.85937,-3.65625"
         style="font-size:48px;text-align:center;text-anchor:middle;fill:#ffffff"
         id="path4851" /><path
         d="m 199.98016,165.59123 c -0.48439,-0.28123 -1.01564,-0.48435 -1.59375,-0.60937 -0.56251,-0.1406 -1.18751,-0.21092 -1.875,-0.21094 -2.43751,2e-5 -4.31251,0.7969 -5.625,2.39062 -1.29688,1.57815 -1.94532,3.85158 -1.94531,6.82032 l 0,13.82812 -4.33594,0 0,-26.25 4.33594,0 0,4.07813 c 0.90624,-1.59373 2.08593,-2.77342 3.53906,-3.53907 1.45311,-0.78122 3.21874,-1.17184 5.29688,-1.17187 0.29686,3e-5 0.62498,0.0235 0.98437,0.0703 0.35936,0.0313 0.7578,0.086 1.19532,0.16406 l 0.0234,4.42969"
         style="font-size:48px;text-align:center;text-anchor:middle;fill:#ffffff"
         id="path4853" /><path
         d="m 208.8161,154.10686 0,7.45312 8.88281,0 0,3.35156 -8.88281,0 0,14.25 c -1e-5,2.14064 0.28905,3.51563 0.86719,4.125 0.59374,0.60938 1.78905,0.91407 3.58594,0.91407 l 4.42968,0 0,3.60937 -4.42968,0 c -3.32814,0 -5.62501,-0.61718 -6.89063,-1.85156 -1.26563,-1.25 -1.89844,-3.51562 -1.89844,-6.79688 l 0,-14.25 -3.16406,0 0,-3.35156 3.16406,0 0,-7.45312 4.33594,0"
         style="font-size:48px;text-align:center;text-anchor:middle;fill:#ffffff"
         id="path4855" /><path
         d="m 222.94891,177.45061 0,-15.89063 4.3125,0 0,15.72656 c 0,2.48439 0.48437,4.35157 1.45313,5.60157 0.96874,1.23438 2.42186,1.85156 4.35937,1.85156 2.32811,0 4.16405,-0.74218 5.50782,-2.22656 1.35935,-1.48437 2.03904,-3.50781 2.03906,-6.07032 l 0,-14.88281 4.3125,0 0,26.25 -4.3125,0 0,-4.03125 c -1.0469,1.59375 -2.26565,2.78125 -3.65625,3.5625 -1.37502,0.76563 -2.97658,1.14844 -4.80469,1.14844 -3.01563,0 -5.30469,-0.9375 -6.86719,-2.8125 -1.5625,-1.875 -2.34375,-4.61718 -2.34375,-8.22656"
         style="font-size:48px;text-align:center;text-anchor:middle;fill:#ffffff"
         id="path4857" /><path
         d="m 271.13641,174.38029 c -2e-5,-3.12498 -0.64846,-5.54685 -1.94531,-7.26562 -1.28127,-1.71873 -3.08595,-2.5781 -5.41406,-2.57813 -2.31251,3e-5 -4.1172,0.8594 -5.41406,2.57813 -1.28126,1.71877 -1.92189,4.14064 -1.92188,7.26562 -1e-5,3.10939 0.64062,5.52345 1.92188,7.24219 1.29686,1.71876 3.10155,2.57813 5.41406,2.57813 2.32811,0 4.13279,-0.85937 5.41406,-2.57813 1.29685,-1.71874 1.94529,-4.1328 1.94531,-7.24219 m 4.3125,10.17188 c -2e-5,4.46875 -0.99221,7.78906 -2.97656,9.96094 -1.9844,2.18749 -5.02345,3.28124 -9.11719,3.28125 -1.51563,-1e-5 -2.94532,-0.1172 -4.28906,-0.35157 -1.34376,-0.21875 -2.64844,-0.5625 -3.91406,-1.03125 l 0,-4.19531 c 1.26562,0.6875 2.51562,1.19531 3.75,1.52344 1.23436,0.32812 2.49217,0.49218 3.77344,0.49219 2.8281,-1e-5 4.94529,-0.7422 6.35156,-2.22657 1.40623,-1.46875 2.10935,-3.69531 2.10937,-6.67968 l 0,-2.13282 c -0.89064,1.54688 -2.03127,2.70313 -3.42187,3.46875 -1.39064,0.76563 -3.0547,1.14844 -4.99219,1.14844 -3.21876,0 -5.81251,-1.22656 -7.78125,-3.67969 -1.96875,-2.45311 -2.95313,-5.70311 -2.95312,-9.75 -1e-5,-4.06248 0.98437,-7.32029 2.95312,-9.77343 1.96874,-2.4531 4.56249,-3.67966 7.78125,-3.67969 1.93749,3e-5 3.60155,0.38284 4.99219,1.14844 1.3906,0.76565 2.53123,1.9219 3.42187,3.46875 l 0,-3.98438 4.3125,0 0,22.99219"
         style="font-size:48px;text-align:center;text-anchor:middle;fill:#ffffff"
         id="path4859" /><path
         d="m 296.26141,174.61467 c -3.48438,1e-5 -5.89844,0.39845 -7.24218,1.19531 -1.34376,0.79689 -2.01564,2.15626 -2.01563,4.07813 -1e-5,1.53125 0.49999,2.75 1.5,3.65625 1.01562,0.89063 2.39061,1.33594 4.125,1.33593 2.39061,1e-5 4.30467,-0.84374 5.74219,-2.53125 1.4531,-1.70311 2.17967,-3.96092 2.17969,-6.77343 l 0,-0.96094 -4.28907,0 m 8.60157,-1.78125 0,14.97656 -4.3125,0 0,-3.98437 c -0.9844,1.59375 -2.21096,2.77344 -3.67969,3.53906 -1.46877,0.75 -3.26564,1.125 -5.39063,1.125 -2.68751,0 -4.82813,-0.75 -6.42187,-2.25 -1.57813,-1.51562 -2.36719,-3.53906 -2.36719,-6.07031 0,-2.95312 0.98437,-5.17968 2.95313,-6.67969 1.98436,-1.49998 4.93749,-2.24998 8.85937,-2.25 l 6.04688,0 0,-0.42188 c -2e-5,-1.98435 -0.65627,-3.5156 -1.96875,-4.59375 -1.2969,-1.09372 -3.12502,-1.6406 -5.48438,-1.64062 -1.50001,2e-5 -2.96095,0.17971 -4.38281,0.53906 -1.42188,0.3594 -2.78907,0.89846 -4.10156,1.61719 l 0,-3.98438 c 1.57811,-0.60934 3.10936,-1.06247 4.59375,-1.35937 1.48436,-0.31247 2.92967,-0.46872 4.33593,-0.46875 3.79686,3e-5 6.6328,0.9844 8.50782,2.95312 1.87497,1.96878 2.81247,4.95315 2.8125,8.95313"
         style="font-size:48px;text-align:center;text-anchor:middle;fill:#ffffff"
         id="path4861" /><path
         d="m 313.76923,151.34123 4.3125,0 0,36.46875 -4.3125,0 0,-36.46875"
         style="font-size:48px;text-align:center;text-anchor:middle;fill:#ffffff"
         id="path4863" /></g></g><g
     inkscape:groupmode="layer"
     id="layer3"
     inkscape:label="mask"
     style="display:none"
     sodipodi:insensitive="true" /></svg>